<?xml version="1.0" encoding="UTF-8" standalone="no"?>
<!-- Generator: Adobe Illustrator 16.0.0, SVG Export Plug-In . SVG Version: 6.00 Build 0)  -->

<svg
   xmlns:dc="http://purl.org/dc/elements/1.1/"
   xmlns:cc="http://creativecommons.org/ns#"
   xmlns:rdf="http://www.w3.org/1999/02/22-rdf-syntax-ns#"
   xmlns:svg="http://www.w3.org/2000/svg"
   xmlns="http://www.w3.org/2000/svg"
   xmlns:sodipodi="http://sodipodi.sourceforge.net/DTD/sodipodi-0.dtd"
   xmlns:inkscape="http://www.inkscape.org/namespaces/inkscape"
   version="1.1"
   id="Layer_1"
   x="0px"
   y="0px"
   width="270"
   height="80"
   viewBox="0 0 270.00001 80"
   enable-background="new 0 0 1525.888 371.302"
   xml:space="preserve"
   inkscape:version="0.48.5 r10040"
   sodipodi:docname="do-it-yourself-logo-type.svg"><metadata
     id="metadata3276"><rdf:RDF><cc:Work
         rdf:about=""><dc:format>image/svg+xml</dc:format><dc:type
           rdf:resource="http://purl.org/dc/dcmitype/StillImage" /></cc:Work></rdf:RDF></metadata><defs
     id="defs3274" /><sodipodi:namedview
     pagecolor="#ffffff"
     bordercolor="#666666"
     borderopacity="1"
     objecttolerance="10"
     gridtolerance="10"
     guidetolerance="10"
     inkscape:pageopacity="0"
     inkscape:pageshadow="2"
     inkscape:window-width="1696"
     inkscape:window-height="1110"
     id="namedview3272"
     showgrid="false"
     inkscape:zoom="3.2327255"
     inkscape:cx="116.65477"
     inkscape:cy="-26.349612"
     inkscape:window-x="572"
     inkscape:window-y="846"
     inkscape:window-maximized="0"
     inkscape:current-layer="Layer_1" /><path
     d="m 15.012024,26.908617 c 0.280385,-0.598619 0.715559,-1.139362 1.30654,-1.62104 0.590982,-0.483037 1.330811,-0.8751 2.220508,-1.175852 0.889526,-0.300752 1.939273,-0.446546 3.14941,-0.436023 1.088613,0.0076 2.091347,0.113885 3.008199,0.316027 0.916852,0.201973 1.703865,0.501367 2.362397,0.896316 0.657004,0.394949 1.175173,0.884096 1.55332,1.464554 0.377637,0.580288 0.57282,1.253416 0.583513,2.019044 0.0076,0.495256 -0.07213,1.030059 -0.237784,1.607292 -0.16633,0.575876 -0.426179,1.192655 -0.779376,1.850508 -0.380692,0.686705 -0.646481,1.295847 -0.799912,1.827764 -0.153431,0.531747 -0.22794,0.99204 -0.22183,1.382577 0.0076,0.525637 0.141381,0.919228 0.40038,1.185017 0.259,0.264431 0.590982,0.398004 0.993568,0.401059 0.537858,0.0046 1.136476,-0.220302 1.795008,-0.672958 0.658532,-0.451297 1.26326,-1.148696 1.814017,-2.08897 0.563655,-0.970825 0.969976,-1.905159 1.219301,-2.803003 0.248308,-0.89937 0.366945,-1.775998 0.353876,-2.63141 -0.02121,-1.440283 -0.359307,-2.755819 -1.015632,-3.946946 -0.655476,-1.1896 -1.513944,-2.216604 -2.575062,-3.081011 -1.060439,-0.86288 -2.263617,-1.532953 -3.607497,-2.008521 -1.344558,-0.475569 -2.715594,-0.720142 -4.113276,-0.730665 -2.205232,-0.0168 -4.122611,0.267316 -5.753495,0.855412 -1.631563,0.586399 -2.987663,1.359664 -4.069318,2.318439 -1.080976,0.960132 -1.884622,2.047897 -2.411108,3.267877 -0.5264855,1.218453 -0.7809027,2.458122 -0.7625724,3.717649 0.019688,1.350668 0.2961694,2.556901 0.8294444,3.618868 0.532426,1.061967 1.232031,2.025154 2.098814,2.886507 0.865935,0.861352 1.84898,1.654475 2.948117,2.374617 1.099137,0.721669 2.218132,1.409902 3.356814,2.0647 1.138004,0.65327 2.256828,1.30043 3.354437,1.938425 1.098458,0.639692 2.079127,1.31876 2.942856,2.038902 0.864407,0.718614 1.560957,1.501044 2.091177,2.345764 0.529541,0.844719 0.802288,1.798911 0.818072,2.863763 0.0168,1.156164 -0.257472,2.178586 -0.821976,3.065906 -0.565183,0.888678 -1.30654,1.636315 -2.225599,2.243929 -0.91838,0.609312 -1.95981,1.065022 -3.12446,1.370357 -1.16516,0.306862 -2.332017,0.454183 -3.501759,0.445188 -0.994416,-0.0076 -1.957604,-0.135271 -2.888204,-0.382899 -0.931279,-0.247628 -1.756989,-0.621532 -2.476452,-1.122728 -0.720142,-0.499839 -1.30043,-1.135119 -1.741035,-1.903801 -0.442133,-0.768684 -0.670073,-1.678747 -0.685179,-2.728494 -0.007,-0.479981 0.0129,-0.923641 0.06076,-1.327756 0.04786,-0.404114 0.09946,-0.774793 0.154959,-1.112035 0.05618,-0.337243 0.108624,-0.648688 0.158014,-0.932807 0.04939,-0.285646 0.07213,-0.55449 0.0684,-0.809756 -0.0076,-0.556018 -0.158862,-0.966242 -0.451298,-1.230504 -0.293284,-0.264431 -0.6547972,-0.399531 -1.0840308,-0.402586 -0.4170134,-0.0031 -0.8652561,0.11694 -1.3460859,0.361513 -0.480151,0.243046 -0.9221139,0.607784 -1.3247007,1.09082 -0.4025868,0.484564 -0.7367746,1.09082 -1.0012056,1.815544 -0.2651098,0.726252 -0.3905363,1.569614 -0.37594,2.529576 0.026477,1.861031 0.4238024,3.488351 1.1902788,4.881451 0.7656277,1.394797 1.7744709,2.556901 3.0248322,3.489877 1.249682,0.932807 2.671635,1.634618 4.264501,2.103907 1.592187,0.470985 3.229181,0.712673 4.909455,0.726251 1.196388,0.0092 2.383612,-0.09708 3.563368,-0.320609 1.179756,-0.223528 2.304012,-0.556018 3.372768,-0.996623 1.068756,-0.441963 2.061645,-1.004261 2.979346,-1.687742 0.916852,-0.682293 1.708278,-1.470834 2.374617,-2.367149 0.66549,-0.894619 1.184338,-1.906517 1.558072,-3.036883 0.372885,-1.128839 0.549908,-2.370205 0.53022,-3.720704 -0.02207,-1.484411 -0.300073,-2.807584 -0.834197,-3.966804 -0.534802,-1.159219 -1.235935,-2.1998 -2.102548,-3.123612 -0.866784,-0.920586 -1.846604,-1.7502 -2.939801,-2.486974 -1.092347,-0.736775 -2.211342,-1.428063 -3.356813,-2.075393 -1.144793,-0.645633 -2.262939,-1.273105 -3.353759,-1.882246 -1.09082,-0.609312 -2.068434,-1.250361 -2.931314,-1.924847 -0.863728,-0.674656 -1.55943,-1.40532 -2.088122,-2.189278 -0.529541,-0.783958 -0.800761,-1.671109 -0.815866,-2.661791 -0.0083,-0.585381 0.127633,-1.177889 0.407848,-1.77498 z"
     id="path3246"
     inkscape:connector-curvature="0"
     style="fill:#3b3b3b" /><path
     d="m 53.632353,47.717874 c -0.396477,0.492201 -0.839458,0.972352 -1.330132,1.44181 -0.490674,0.467931 -1.004261,0.914646 -1.542797,1.336921 -0.537857,0.423803 -1.083182,0.812812 -1.635466,1.168385 -0.552963,0.3571 -1.079449,0.663962 -1.579288,0.922284 -0.500688,0.258151 -0.960981,0.46182 -1.382577,0.607614 -0.420747,0.147321 -0.773265,0.218775 -1.055178,0.217247 -0.457238,-0.0044 -0.872045,-0.08673 -1.243402,-0.2461 -0.372206,-0.161069 -0.688234,-0.417863 -0.948761,-0.773436 -0.260527,-0.354045 -0.462669,-0.809756 -0.604559,-1.365774 -0.142738,-0.556018 -0.219454,-1.239838 -0.231674,-2.050952 -0.0046,-0.31467 -0.0068,-0.659381 -0.0053,-1.034642 0.0015,-0.375261 0.0061,-0.765628 0.01375,-1.169912 0.007,-0.405641 0.01443,-0.814338 0.02206,-1.227448 0.0068,-0.411752 0.01511,-0.812811 0.02274,-1.203178 0.02733,-0.899371 0.06076,-1.814017 0.100987,-2.745296 0.328926,-0.46182 0.687384,-0.97999 1.075545,-1.555865 0.38816,-0.574179 0.772586,-1.159219 1.153788,-1.757668 l 7.742158,0.06229 c 0.322816,0.0031 0.6161,-0.159541 0.880531,-0.487788 0.263583,-0.328248 0.392064,-0.755105 0.384426,-1.280742 -0.0068,-0.434495 -0.07213,-0.794651 -0.197559,-1.081825 -0.125426,-0.285646 -0.322137,-0.43755 -0.59183,-0.454183 -0.228619,-0.0168 -0.51732,-0.03496 -0.867462,-0.0516 -0.349463,-0.01816 -0.726252,-0.03649 -1.129518,-0.05465 -0.403265,-0.01816 -0.820448,-0.03954 -1.25121,-0.06534 -0.430761,-0.02733 -0.830292,-0.04854 -1.200122,-0.06687 -0.37,-0.0168 -0.695871,-0.03191 -0.978463,-0.04107 -0.282591,-0.0092 -0.483885,-0.02274 -0.605408,-0.03955 0.471835,-0.85083 0.919229,-1.709127 1.343031,-2.57659 0.423973,-0.867462 0.791596,-1.722874 1.101513,-2.569121 0.310766,-0.84472 0.553812,-1.675861 0.729986,-2.491558 0.175495,-0.815866 0.259,-1.592186 0.247628,-2.327434 -0.01222,-0.870517 -0.115582,-1.707599 -0.30839,-2.511245 -0.193655,-0.805174 -0.462669,-1.508682 -0.80738,-2.111714 -0.34488,-0.601504 -0.758838,-1.086237 -1.241196,-1.449448 -0.482357,-0.364569 -1.012577,-0.54838 -1.590659,-0.552963 -0.90005,-0.0075 -1.753934,0.432968 -2.560635,1.31876 -0.80738,0.885624 -1.545852,2.066058 -2.216604,3.53825 -0.670752,1.472191 -1.270898,3.15552 -1.800269,5.049986 -0.530899,1.892939 -0.962339,3.851221 -1.295169,5.874848 -0.134421,0.02885 -0.379843,0.03802 -0.736095,0.02733 -0.356252,-0.01052 -0.759688,-0.02427 -1.210137,-0.04243 -0.450449,-0.01969 -0.920586,-0.02733 -1.41126,-0.02274 -0.490844,0.0031 -0.939765,0.04107 -1.349141,0.112527 -0.408697,0.07298 -0.742885,0.185339 -1.002733,0.341825 -0.259849,0.154959 -0.38816,0.382899 -0.383578,0.682293 0.0024,0.135101 0.01137,0.297697 0.02733,0.484564 0.0168,0.188394 0.06619,0.369151 0.148848,0.540913 0.0835,0.173288 0.213514,0.325192 0.389688,0.454183 0.177023,0.12916 0.427027,0.217247 0.749674,0.264431 0.727779,0.09572 1.283118,0.174646 1.667374,0.238463 0.383578,0.06229 0.700284,0.121522 0.950289,0.176344 0.249155,0.05465 0.484563,0.109472 0.707242,0.162596 0.222679,0.05465 0.53633,0.113885 0.940444,0.176344 -0.106247,1.00426 -0.185339,2.017516 -0.237784,3.037052 -0.05244,1.019366 -0.07213,1.979668 -0.05855,2.880566 0.03428,2.310801 0.195183,4.389079 0.484564,6.238059 0.288701,1.847453 0.704866,3.423007 1.248834,4.724795 0.543118,1.302127 1.209288,2.301805 1.999356,2.997676 0.789219,0.695871 1.695549,1.048219 2.716442,1.057215 0.497633,0.0032 1.050596,-0.09725 1.659058,-0.30228 0.608463,-0.205027 1.302807,-0.514945 2.082861,-0.928394 0.780054,-0.414637 1.67043,-0.932806 2.669259,-1.553998 0.998151,-0.62289 2.136833,-1.349141 3.415369,-2.178586 l -0.08452,-5.763169 z M 46.531244,26.776401 c -0.218096,0.747467 -0.495256,1.552641 -0.83182,2.412636 -0.337243,0.859825 -0.717087,1.734925 -1.140889,2.623603 -0.423972,0.890375 -0.83182,1.715237 -1.223714,2.477979 -0.21572,-0.03191 -0.423973,-0.06076 -0.625945,-0.08503 -0.201972,-0.02274 -0.404114,-0.05177 -0.606256,-0.08367 0.224206,-1.212343 0.470986,-2.464232 0.741527,-3.752442 0.270371,-1.288379 0.561279,-2.467286 0.8751,-3.536891 0.313821,-1.071132 0.643426,-1.949118 0.989834,-2.637521 0.346408,-0.686705 0.693495,-1.028531 1.043806,-1.027003 0.255096,0.0031 0.454183,0.06382 0.597091,0.185339 0.142739,0.121523 0.249156,0.272069 0.319083,0.452656 0.06993,0.180756 0.11694,0.372206 0.139853,0.574348 0.02274,0.203669 0.03564,0.387481 0.03802,0.551605 0.0073,0.481678 -0.09844,1.095402 -0.315688,1.844397 z"
     id="path3248"
     inkscape:connector-curvature="0"
     style="fill:#3b3b3b" /><path
     d="m 65.455879,41.510196 c 0.489147,0.364568 1.073339,0.814338 1.753934,1.352196 0.679917,0.539384 1.369508,1.110508 2.071489,1.716764 0.700284,0.604559 1.364926,1.226091 1.992568,1.861031 0.627471,0.635109 1.12731,1.224563 1.497989,1.766833 l 0.336564,-3.170626 c -0.741357,-1.025476 -1.539063,-2.022099 -2.392778,-2.989869 -0.853884,-0.966242 -1.773792,-1.824539 -2.759043,-2.576589 -0.985931,-0.748995 -2.039581,-1.350669 -3.161461,-1.801797 -1.122728,-0.451297 -2.322172,-0.68365 -3.59918,-0.692816 -1.49188,-0.01205 -2.831855,0.281064 -4.019249,0.879683 -1.187393,0.598449 -2.186223,1.421953 -2.997506,2.473227 -0.811284,1.052972 -1.428063,2.292641 -1.850338,3.722231 -0.423124,1.42959 -0.622211,2.970181 -0.59777,4.620244 0.01748,1.199953 0.158862,2.386667 0.424651,3.559634 0.265788,1.172968 0.674485,2.2256 1.22609,3.159934 0.551605,0.936031 1.25121,1.694021 2.099664,2.278892 0.848623,0.584871 1.864085,0.881041 3.047745,0.890376 0.8196,0.0076 1.590659,-0.144436 2.311479,-0.454353 0.72099,-0.30839 1.383256,-0.730834 1.987136,-1.267164 0.60388,-0.534633 1.138683,-1.168215 1.605086,-1.900407 0.466403,-0.731004 0.858297,-1.514792 1.175852,-2.353232 0.316706,-0.837421 0.555169,-1.706242 0.717087,-2.605613 0.161747,-0.898013 0.236256,-1.789746 0.223188,-2.675539 -0.0129,-0.885792 -0.124578,-1.812489 -0.333509,-2.783314 -0.208762,-0.969297 -0.514945,-1.889883 -0.916853,-2.763456 l 0.157165,-0.24627 z m -7.560553,12.35154 c -0.379844,-0.250684 -0.687385,-0.581816 -0.921435,-0.996623 -0.235578,-0.414808 -0.410224,-0.900899 -0.525637,-1.457086 -0.116261,-0.555849 -0.17855,-1.148527 -0.187546,-1.778884 -0.0129,-0.914646 0.08045,-1.867141 0.281064,-2.856126 0.200615,-0.989155 0.482358,-1.890054 0.846926,-2.704392 0.364569,-0.815867 0.791596,-1.482715 1.281421,-2.005297 0.489146,-0.521054 1.009522,-0.779375 1.561127,-0.774793 0.416335,0.0031 0.774793,0.133743 1.074187,0.392064 0.299225,0.256793 0.546174,0.603201 0.741357,1.040751 0.194505,0.436023 0.342674,0.951137 0.445867,1.545173 0.102514,0.594037 0.159541,1.235087 0.169385,1.924847 0.01222,0.870518 -0.07128,1.782109 -0.252211,2.733076 -0.181435,0.951137 -0.427706,1.820127 -0.738302,2.604085 -0.311444,0.785486 -0.67754,1.435701 -1.100664,1.950645 -0.422275,0.513417 -0.862201,0.768683 -1.31876,0.765798 -0.524958,-0.0051 -0.976935,-0.132725 -1.356779,-0.383238 z"
     id="path3250"
     inkscape:connector-curvature="0"
     style="fill:#3b3b3b" /><path
     d="m 70.814934,55.696798 c 0.0684,0.563826 0.196711,1.068077 0.385275,1.511738 0.187546,0.44366 0.451128,0.799063 0.791596,1.063494 0.339449,0.265959 0.784637,0.401059 1.336242,0.405642 0.242366,0.0017 0.463348,-0.04549 0.663962,-0.141211 0.199766,-0.09573 0.385106,-0.262903 0.556867,-0.502894 0.170913,-0.238463 0.338091,-0.54838 0.500518,-0.929921 0.161917,-0.381202 0.33266,-0.86288 0.512738,-1.447751 l 3.4449,-11.203014 0.321968,0.0031 c 0.121523,0.946554 0.276482,1.880888 0.464876,2.806057 0.187546,0.923642 0.469458,1.759196 0.843192,2.503608 0.373733,0.74594 0.872894,1.350669 1.497989,1.812659 0.625096,0.463179 1.441811,0.698757 2.449805,0.706394 0.564505,0.0044 1.118146,-0.0852 1.659059,-0.269013 0.54244,-0.182285 1.062815,-0.410225 1.562654,-0.683651 0.500518,-0.273426 0.969976,-0.566541 1.408375,-0.878155 0.439078,-0.311275 0.831821,-0.594036 1.17738,-0.846078 l 0.225734,-5.264179 c -0.597092,0.549908 -1.208609,1.040582 -1.833705,1.470664 -0.531747,0.370679 -1.118146,0.703509 -1.759366,0.998151 -0.640371,0.296339 -1.26326,0.440605 -1.868668,0.436022 -0.215041,-0.0015 -0.420747,-0.04871 -0.616779,-0.139853 -0.196032,-0.09267 -0.373055,-0.247628 -0.531068,-0.466403 -0.158014,-0.218775 -0.286326,-0.509004 -0.385784,-0.86899 -0.09946,-0.361514 -0.152583,-0.811284 -0.16022,-1.352196 -0.0053,-0.3145 0.02274,-0.707922 0.08282,-1.180435 0.06076,-0.472513 0.126954,-0.958605 0.200615,-1.461499 0.07366,-0.501366 0.139683,-0.981517 0.200614,-1.438755 0.06076,-0.457238 0.08877,-0.812811 0.08588,-1.067908 -0.0054,-0.329775 -0.06382,-0.627471 -0.174817,-0.890375 -0.111678,-0.264431 -0.258999,-0.486091 -0.442811,-0.668375 -0.184491,-0.180757 -0.398004,-0.32061 -0.641899,-0.420748 -0.243045,-0.09878 -0.49305,-0.150376 -0.748315,-0.152073 -0.738981,-0.0061 -1.387839,0.20961 -1.946063,0.648687 -0.557545,0.43755 -1.05365,0.978463 -1.488145,1.619513 -0.433647,0.641219 -0.813491,1.332508 -1.138683,2.072337 -0.325192,0.73983 -0.617628,1.409903 -0.878155,2.006824 l -0.22183,-0.0015 c -0.03802,-0.765628 -0.06229,-1.541948 -0.07434,-2.328961 -0.01137,-0.788541 -0.02121,-1.459972 -0.0297,-2.014632 -0.0068,-0.464875 -0.02206,-0.834027 -0.04633,-1.104398 -0.02359,-0.268844 -0.08435,-0.475568 -0.180078,-0.619834 -0.0964,-0.142739 -0.242367,-0.233881 -0.43755,-0.273427 -0.196032,-0.03802 -0.467931,-0.05923 -0.817394,-0.06229 -0.309068,-0.0031 -0.568238,0.01375 -0.775472,0.05007 -0.208252,0.03496 -0.381371,0.109473 -0.521054,0.220303 -0.139005,0.112527 -0.261376,0.264431 -0.366096,0.458766 -0.10489,0.194504 -0.208252,0.45588 -0.311445,0.785485 -0.167179,0.493729 -0.33266,1.122728 -0.496105,1.886998 -0.163275,0.762573 -0.32655,1.60271 -0.487789,2.515828 -0.161068,0.914646 -0.311444,1.876306 -0.451128,2.888035 -0.139853,1.011898 -0.259848,2.005466 -0.359307,2.979346 -0.100307,0.975407 -0.177701,1.900576 -0.231674,2.778731 -0.05465,0.876458 -0.07672,1.645141 -0.06687,2.306219 0.0078,0.599976 0.0465,1.181962 0.115582,1.74392 z"
     id="path3252"
     inkscape:connector-curvature="0"
     style="fill:#3b3b3b" /><path
     d="m 96.94387,48.196327 c -0.04701,0.480151 -0.155637,1.080128 -0.32655,1.798742 -0.170913,0.718614 -0.399532,1.414485 -0.685178,2.087443 -0.285647,0.673128 -0.626624,1.247476 -1.02327,1.724403 -0.395798,0.477096 -0.843192,0.714031 -1.339976,0.709449 -0.309069,-0.0014 -0.565862,-0.09114 -0.77021,-0.264262 -0.20367,-0.174646 -0.368473,-0.401059 -0.493729,-0.679238 -0.124578,-0.278008 -0.213514,-0.594036 -0.265789,-0.947912 -0.05244,-0.352518 -0.0813,-0.717256 -0.08656,-1.092517 -0.01069,-0.719972 0.03106,-1.552641 0.124578,-2.496141 0.09335,-0.944856 0.224037,-1.908044 0.391215,-2.889561 0.167179,-0.981518 0.361514,-1.940122 0.583514,-2.875984 0.220981,-0.935861 0.448242,-1.748673 0.679917,-2.436906 0.07671,-0.224885 0.130688,-0.434495 0.161747,-0.628999 0.03038,-0.194505 0.04481,-0.373734 0.04243,-0.539385 -0.0083,-0.55466 -0.182284,-0.966243 -0.521903,-1.230674 -0.340298,-0.265788 -0.745261,-0.399531 -1.215398,-0.404114 -0.551435,-0.0046 -1.113563,0.168706 -1.686384,0.516472 -0.57282,0.347936 -1.008843,0.858467 -1.308067,1.529898 -0.402587,0.943499 -0.758839,1.873251 -1.068078,2.793837 -0.309238,0.920586 -0.563655,1.874778 -0.7641,2.863763 -0.200445,0.988986 -0.350142,2.029737 -0.448242,3.12514 -0.09793,1.093706 -0.137477,2.294168 -0.118468,3.59918 0.01443,0.990514 0.168706,1.880889 0.462669,2.670787 0.293284,0.789899 0.679917,1.461499 1.15854,2.012934 0.478454,0.551436 1.025476,0.975408 1.641407,1.273105 0.616101,0.297697 1.246627,0.448243 1.891581,0.454183 0.739151,0.0046 1.498838,-0.20944 2.278893,-0.64699 0.780224,-0.436023 1.527691,-1.011729 2.242401,-1.72593 l -0.513417,2.088971 c -0.95487,0.878155 -1.899049,1.800269 -2.832704,2.768208 -0.932806,0.96777 -1.826067,1.950645 -2.677575,2.950493 -0.853036,0.99815 -1.641577,2.000884 -2.365622,3.008199 -0.724724,1.007316 -1.349141,1.976613 -1.872402,2.910777 -0.52411,0.932807 -0.934334,1.823013 -1.231352,2.667732 -0.296339,0.844889 -0.439926,1.606104 -0.430082,2.281948 0.01443,0.97388 0.173967,1.75631 0.477774,2.344236 0.304656,0.586399 0.683651,1.040582 1.138683,1.358137 0.455032,0.319082 0.94876,0.533444 1.481356,0.642747 0.532426,0.109472 1.027004,0.165481 1.484242,0.168536 1.156164,0.0092 2.207439,-0.203669 3.15552,-0.638164 0.947912,-0.434495 1.802646,-1.046692 2.563691,-1.83676 0.761894,-0.788541 1.439434,-1.736453 2.034998,-2.842378 0.595564,-1.104568 1.122049,-2.320136 1.580136,-3.643309 0.457238,-1.324871 0.849981,-2.746993 1.176701,-4.267556 0.327399,-1.520902 0.606933,-3.082539 0.838613,-4.685418 1.30433,-0.890206 2.52058,-1.810962 3.64924,-2.761929 0.47778,-0.401059 0.96557,-0.827916 1.46303,-1.282269 0.49763,-0.454353 0.97456,-0.922284 1.43112,-1.406848 0.45656,-0.484563 0.87289,-0.967769 1.24883,-1.452503 0.37611,-0.484564 0.68145,-0.958605 0.91618,-1.421953 l -1.04075,-5.004331 c -0.86594,1.41754 -1.64905,2.60086 -2.3473,3.547245 -0.69892,0.948082 -1.33233,1.733568 -1.90057,2.359512 -0.56892,0.625944 -1.08624,1.124086 -1.55112,1.496292 -0.46487,0.370679 -0.89631,0.682293 -1.29669,0.934334 0.31212,-2.547736 0.61983,-4.931519 0.92364,-7.14948 0.12084,-0.943499 0.24763,-1.891581 0.38137,-2.844076 0.13442,-0.951137 0.26579,-1.85509 0.39427,-2.708805 0.12831,-0.853884 0.24831,-1.617985 0.35931,-2.29264 0.11168,-0.674486 0.20435,-1.206233 0.27953,-1.595072 0.0372,-0.180757 0.0555,-0.337243 0.0531,-0.472513 -0.006,-0.436023 -0.1519,-0.755105 -0.43755,-0.960132 -0.28496,-0.205028 -0.63646,-0.30839 -1.0528,-0.312973 -0.34946,-0.0015 -0.71861,0.06229 -1.10609,0.194505 -0.38816,0.132215 -0.75816,0.331302 -1.109832,0.598619 -0.352518,0.267486 -0.663963,0.598618 -0.932807,0.995095 -0.270371,0.394949 -0.455031,0.847774 -0.555169,1.356779 l -1.314517,6.606021 z m -8.444818,26.333285 c -0.0053,-0.346408 0.08961,-0.779375 0.28327,-1.303485 0.194505,-0.524279 0.461142,-1.087935 0.802288,-1.692664 0.340298,-0.604559 0.737624,-1.236613 1.191807,-1.892938 0.454353,-0.656156 0.935182,-1.29432 1.444017,-1.912797 0.508155,-0.618476 1.030059,-1.19554 1.567067,-1.73187 0.53633,-0.534632 1.063495,-0.996623 1.582343,-1.382577 -0.09878,0.598619 -0.236936,1.280912 -0.413958,2.045012 -0.176854,0.764101 -0.393422,1.546701 -0.650216,2.347292 -0.257472,0.800591 -0.555169,1.581494 -0.89326,2.344236 -0.338771,0.762573 -0.714711,1.441811 -1.129518,2.038902 -0.414807,0.597091 -0.871366,1.077242 -1.369677,1.441641 -0.498991,0.363381 -1.030738,0.54244 -1.595072,0.538027 -0.537858,-0.0048 -0.810605,-0.284119 -0.819091,-0.838779 l 0,0 z"
     id="path3254"
     inkscape:connector-curvature="0"
     style="fill:#3b3b3b" /><path
     d="m 140.14931,27.698685 c -0.33589,-0.946554 -0.78854,-1.809434 -1.35831,-2.587282 -0.56824,-0.776321 -1.24425,-1.469137 -2.02651,-2.075393 -0.78107,-0.606256 -1.62562,-1.115091 -2.53195,-1.52837 -0.90616,-0.411752 -1.85798,-0.726252 -2.85613,-0.945027 -0.99815,-0.217248 -2.00088,-0.331133 -3.00888,-0.33877 -2.2721,-0.01816 -4.42098,0.302279 -6.44699,0.961659 -2.02668,0.659381 -3.89535,1.586077 -5.60447,2.780259 -1.70998,1.194183 -3.24514,2.614608 -4.6048,4.261446 -1.36051,1.646838 -2.51277,3.4578 -3.45848,5.42983 -0.94571,1.973388 -1.66126,4.071524 -2.14515,6.295765 -0.48541,2.225769 -0.7103,4.500079 -0.67686,6.825985 0.019,1.289907 0.12916,2.58864 0.3296,3.89552 0.20062,1.308068 0.48779,2.573535 0.86221,3.799625 0.37373,1.226091 0.83708,2.37309 1.39089,3.442525 0.55296,1.069774 1.19554,2.005466 1.92637,2.806057 0.72999,0.802288 1.54585,1.434173 2.44675,1.899049 0.9009,0.464706 1.88836,0.701811 2.96407,0.709449 1.45166,0.01222 2.67079,-0.458766 3.65842,-1.41126 0.98763,-0.952495 1.80027,-2.333544 2.43928,-4.142978 0.63884,-1.810962 1.14089,-4.016873 1.50631,-6.616376 0.36457,-2.60086 0.65785,-5.542188 0.87815,-8.826699 l 1.2709,0.01052 c 0.52411,0.0031 0.96471,0.276482 1.32249,0.820449 0.3571,0.54227 0.67008,1.257999 0.93807,2.14515 0.26817,0.88732 0.51512,1.899048 0.73983,3.03247 0.22489,1.134779 0.46708,2.296883 0.72693,3.483598 0.259,1.188072 0.5584,2.348649 0.89717,3.484956 0.33962,1.135118 0.75731,2.146677 1.25426,3.035524 0.49746,0.890376 1.0954,1.607462 1.79569,2.152788 0.70028,0.545664 1.54127,0.823673 2.52211,0.830971 0.87493,0.0063 1.72881,-0.0925 2.56742,-0.294642 0.83572,-0.203499 1.62868,-0.460293 2.37614,-0.768682 0.749,-0.309918 1.43265,-0.645803 2.05265,-1.008674 0.61967,-0.361683 1.15617,-0.695871 1.60882,-0.999848 0.45113,-0.303637 0.80518,-0.555848 1.05739,-0.756462 0.25221,-0.200615 0.37831,-0.293284 0.37831,-0.278179 l -2.4033,-4.430152 c -0.47573,0.521055 -0.99068,0.996623 -1.54211,1.428063 -0.55161,0.429912 -1.11051,0.800761 -1.67739,1.112205 -0.56654,0.309918 -1.12103,0.549908 -1.66212,0.717087 -0.54227,0.168706 -1.0421,0.250853 -1.49782,0.247628 -0.49848,-0.0044 -0.89631,-0.176174 -1.19723,-0.516472 -0.3016,-0.33877 -0.55297,-0.791596 -0.75664,-1.355081 -0.20282,-0.565183 -0.38069,-1.218623 -0.53259,-1.962866 -0.1519,-0.744242 -0.32129,-1.52243 -0.50816,-2.333544 -0.18686,-0.811114 -0.41022,-1.637673 -0.6716,-2.481034 -0.26052,-0.841665 -0.60846,-1.643783 -1.04295,-2.404829 -0.4345,-0.761214 -0.97236,-1.452503 -1.61273,-2.072337 -0.64105,-0.619835 -1.43485,-1.128669 -2.3814,-1.526843 1.54432,-0.09267 2.93216,-0.325192 4.16266,-0.698756 1.23135,-0.372206 2.32676,-0.840137 3.28536,-1.402265 0.95996,-0.562128 1.78041,-1.20182 2.46271,-1.915852 0.68229,-0.715559 1.23814,-1.456916 1.66975,-2.227296 0.43449,-0.768683 0.75052,-1.549586 0.95402,-2.344236 0.2035,-0.792954 0.30075,-1.549586 0.2887,-2.269728 -0.0154,-1.110678 -0.19179,-2.140736 -0.52886,-3.088648 z m -8.87864,-1.949288 c 0.91838,0.3145 1.6908,0.73389 2.31674,1.256472 0.62595,0.522582 1.10152,1.122728 1.42722,1.800269 0.32604,0.677541 0.49458,1.383934 0.50527,2.119351 0.0105,0.750523 -0.14579,1.526843 -0.47014,2.326076 -0.32451,0.800591 -0.89801,1.53448 -1.72134,2.202856 -0.82351,0.668376 -1.94471,1.218453 -3.36293,1.649893 -1.4189,0.43144 -3.22307,0.660908 -5.41303,0.688233 0.10252,-1.229145 0.21793,-2.312328 0.34556,-3.248189 0.12696,-0.937389 0.19298,-1.690967 0.19824,-2.260732 l -0.003,-0.201973 c -0.008,-0.525637 -0.12458,-0.958604 -0.35167,-1.297544 -0.22642,-0.338771 -0.67602,-0.51206 -1.34762,-0.516472 -0.51121,-0.0046 -0.94265,0.115582 -1.29516,0.360155 -0.3532,0.244573 -0.65412,0.565183 -0.90311,0.960132 -0.25,0.396477 -0.44824,0.837082 -0.59556,1.323174 -0.14817,0.487788 -0.25815,0.970824 -0.33198,1.449448 -0.0737,0.480151 -0.12373,0.929921 -0.15123,1.349141 -0.0282,0.420747 -0.0463,0.750522 -0.0563,0.990513 l -0.0129,0.472513 c -0.0813,-0.0015 -0.25306,-0.02121 -0.51511,-0.06076 -0.2629,-0.03955 -0.54923,-0.08656 -0.85915,-0.141381 -0.30991,-0.05482 -0.60693,-0.103192 -0.88952,-0.142738 -0.2826,-0.03955 -0.47184,-0.05923 -0.56519,-0.06076 -0.21504,-0.0015 -0.38578,0.06076 -0.51121,0.186867 -0.1261,0.127463 -0.22098,0.279537 -0.28564,0.460293 -0.0645,0.179229 -0.10557,0.373734 -0.12238,0.583514 -0.0175,0.209609 -0.0251,0.390366 -0.0227,0.539384 0.01,0.630527 0.29006,1.188073 0.84099,1.672637 0.55143,0.484563 1.35593,1.008673 2.41246,1.572328 0.005,0.344881 0.005,0.843192 0.002,1.496462 -0.004,0.65327 -0.0236,1.39921 -0.0577,2.239347 -0.035,0.840137 -0.0859,1.739677 -0.1519,2.69981 -0.0669,0.958604 -0.16022,1.911269 -0.28106,2.854598 -0.12068,0.944857 -0.27496,1.855091 -0.46403,2.731718 -0.18839,0.876458 -0.41243,1.646838 -0.6716,2.312159 -0.259,0.66549 -0.5606,1.19571 -0.90395,1.590829 -0.34404,0.394779 -0.74442,0.590811 -1.20098,0.587756 -0.90089,-0.0075 -1.67501,-0.317385 -2.32217,-0.931109 -0.64716,-0.612197 -1.17975,-1.408375 -1.59745,-2.386668 -0.41718,-0.978462 -0.7293,-2.079805 -0.93518,-3.304369 -0.20655,-1.224563 -0.31823,-2.444374 -0.33639,-3.659942 -0.0228,-1.575553 0.0844,-3.232914 0.32061,-4.971064 0.23693,-1.73798 0.6312,-3.453217 1.18501,-5.144184 0.55229,-1.690966 1.28142,-3.305896 2.18691,-4.844959 0.9048,-1.537535 2.00699,-2.886506 3.30742,-4.047253 1.29975,-1.159219 2.81522,-2.076751 4.54556,-2.754461 1.7312,-0.676013 3.7056,-1.005788 5.92356,-0.987458 1.20963,0.009 2.27397,0.171592 3.19235,0.486091 z"
     id="path3256"
     inkscape:connector-curvature="0"
     style="fill:#3b3b3b" /><path
     d="m 150.37674,58.984534 c 0.78227,-0.195862 1.53754,-0.460293 2.26668,-0.791596 0.72608,-0.33266 1.42042,-0.712334 2.07827,-1.142246 0.65938,-0.429913 1.27481,-0.867463 1.84746,-1.314178 1.31417,-1.039054 2.55232,-2.236461 3.71629,-3.593071 l -2.64516,-3.037052 c -0.51495,0.56671 -1.14547,1.165159 -1.88836,1.797384 -0.74458,0.631884 -1.53448,1.21387 -2.37309,1.746976 -0.83996,0.533444 -1.70454,0.976934 -2.59186,1.329453 -0.89021,0.353875 -1.73645,0.527164 -2.54332,0.521054 -0.2551,-0.0032 -0.49526,-0.03496 -0.71709,-0.09555 -0.22183,-0.06229 -0.43585,-0.168706 -0.63952,-0.32061 -0.20367,-0.152073 -0.40582,-0.36338 -0.60337,-0.635109 -0.20062,-0.272069 -0.40412,-0.610839 -0.61067,-1.018009 1.16363,-0.350651 2.2424,-0.844719 3.23444,-1.482714 0.99221,-0.636467 1.8444,-1.364077 2.55843,-2.184526 0.71403,-0.818921 1.26869,-1.692494 1.66517,-2.61919 0.39647,-0.928224 0.58809,-1.856448 0.57434,-2.786369 -0.0121,-0.855412 -0.15801,-1.630036 -0.43755,-2.321324 -0.27801,-0.692816 -0.6609,-1.285325 -1.14394,-1.775998 -0.48609,-0.492202 -1.05127,-0.875101 -1.70149,-1.150055 -0.64869,-0.274953 -1.34897,-0.416334 -2.10272,-0.422444 -0.92669,-0.0075 -1.76836,0.170234 -2.52194,0.531747 -0.7534,0.361514 -1.43247,0.85083 -2.03584,1.469136 -0.60151,0.618307 -1.12579,1.333866 -1.5708,2.148205 -0.44366,0.814339 -0.81129,1.669581 -1.09999,2.567424 -0.29006,0.897844 -0.5012,1.815545 -0.63494,2.752934 -0.1351,0.935861 -0.19586,1.824709 -0.18381,2.664676 0.0182,1.245779 0.19298,2.436907 0.52699,3.571855 0.33131,1.134949 0.82045,2.137512 1.46473,3.004975 0.64427,0.867462 1.44317,1.560278 2.39888,2.078448 0.95572,0.518169 2.0647,0.780903 3.32864,0.791595 0.80518,0.0059 1.60119,-0.08826 2.38514,-0.285816 z m -5.19866,-11.508179 c 0.0195,-0.463348 0.0698,-0.943499 0.14885,-1.438755 0.0806,-0.493729 0.20061,-0.984403 0.36168,-1.470664 0.1609,-0.486091 0.37662,-0.920586 0.64699,-1.30043 0.27037,-0.379844 0.60762,-0.689761 1.01478,-0.926696 0.40565,-0.235409 0.89785,-0.352519 1.47661,-0.347936 0.32214,0.0031 0.59862,0.223358 0.82656,0.65938 0.22794,0.43755 0.34624,0.993568 0.35557,1.668224 0.008,0.48015 -0.15343,0.973879 -0.48168,1.481356 -0.32825,0.509004 -0.73524,0.976935 -1.21998,1.408375 -0.4832,0.43144 -1.00867,0.783958 -1.57708,1.057384 -0.56671,0.273427 -1.09235,0.40717 -1.57691,0.404284 -0.003,-0.331642 0.003,-0.728118 0.0246,-1.194522 z"
     id="path3258"
     inkscape:connector-curvature="0"
     style="fill:#3b3b3b" /><path
     d="m 165.37633,59.0363 c 0.68823,-0.241688 1.34897,-0.559243 1.98272,-0.951137 0.63206,-0.393421 1.23661,-0.841664 1.81402,-1.347444 0.57723,-0.505949 1.11068,-1.027173 1.59982,-1.563333 1.15158,-1.250361 2.21949,-2.675539 3.20406,-4.272309 l -1.42959,-2.622075 c -0.49967,0.715559 -1.10134,1.476604 -1.80179,2.28042 -0.70046,0.805173 -1.43876,1.542118 -2.21508,2.210324 -0.77632,0.670073 -1.55128,1.223205 -2.32438,1.659058 -0.77343,0.436023 -1.48153,0.651743 -2.12852,0.64716 -0.65785,-0.0061 -1.19723,-0.171761 -1.61951,-0.496784 -0.42074,-0.32672 -0.75663,-0.733889 -1.00579,-1.224563 -0.24915,-0.489316 -0.42244,-1.027004 -0.51664,-1.612045 -0.0971,-0.586398 -0.14885,-1.149884 -0.15648,-1.689269 -0.004,-0.359986 0.002,-0.806871 0.0198,-1.340146 0.0195,-0.531747 0.073,-1.09082 0.15785,-1.674164 0.0852,-0.584871 0.20367,-1.172797 0.3571,-1.763778 0.15326,-0.592508 0.36321,-1.122728 0.63205,-1.593714 0.26885,-0.470986 0.59557,-0.85083 0.98135,-1.139361 0.38443,-0.290229 0.85236,-0.432968 1.40532,-0.428385 0.22794,0.0015 0.37679,0.12305 0.44824,0.364568 0.0713,0.239991 0.10778,0.540913 0.11406,0.900898 0.003,0.239991 -0.003,0.510532 -0.0182,0.809757 -0.0153,0.299224 -0.0214,0.584871 -0.0182,0.855412 0.009,0.660907 0.11541,1.178907 0.31585,1.555696 0.20062,0.376788 0.61695,0.56671 1.24867,0.571293 0.41633,0.0046 0.79007,-0.112358 1.12273,-0.350991 0.33283,-0.236935 0.61389,-0.552963 0.84336,-0.949439 0.22947,-0.395119 0.40089,-0.840137 0.51342,-1.335394 0.11541,-0.493729 0.16701,-0.995095 0.16089,-1.505627 -0.012,-0.735247 -0.15207,-1.42348 -0.4238,-2.063172 -0.27207,-0.639692 -0.64274,-1.194183 -1.11373,-1.663471 -0.47082,-0.467931 -1.03311,-0.837252 -1.68944,-1.104568 -0.65632,-0.267316 -1.3673,-0.404115 -2.13293,-0.410225 -0.89954,-0.0075 -1.72423,0.170064 -2.4717,0.531748 -0.74747,0.361513 -1.42212,0.850829 -2.02515,1.469136 -0.60168,0.618307 -1.12884,1.336921 -1.58031,2.158897 -0.45265,0.821977 -0.82944,1.684856 -1.13172,2.590337 -0.30228,0.905481 -0.52717,1.83082 -0.67602,2.774149 -0.14579,0.945027 -0.21436,1.852036 -0.20061,2.722553 0.0182,1.215228 0.19603,2.386668 0.5348,3.513979 0.33877,1.128839 0.83097,2.122406 1.47508,2.982231 0.6441,0.861353 1.43723,1.549756 2.3792,2.067755 0.94044,0.518 2.03126,0.780903 3.26788,0.791426 0.71114,0.0046 1.41295,-0.112357 2.10119,-0.355403 z"
     id="path3260"
     inkscape:connector-curvature="0"
     style="fill:#3b3b3b" /><path
     d="m 184.17418,42.452167 c 0.48914,0.364569 1.07402,0.815866 1.75308,1.353724 0.68077,0.537857 1.37036,1.110508 2.07234,1.715237 0.70181,0.606256 1.36578,1.226091 1.99325,1.862558 0.6273,0.635109 1.12731,1.223035 1.49799,1.767003 l 0.33571,-3.170795 c -0.73983,-1.027004 -1.53889,-2.023627 -2.39295,-2.989869 -0.85371,-0.966243 -1.77277,-1.826237 -2.75904,-2.57676 -0.9844,-0.750522 -2.03873,-1.350668 -3.15993,-1.803324 -1.12426,-0.451298 -2.32302,-0.682123 -3.60054,-0.692816 -1.49205,-0.01052 -2.83203,0.282592 -4.01857,0.879683 -1.18654,0.598449 -2.18622,1.42348 -2.99751,2.474924 -0.81111,1.051275 -1.42806,2.292471 -1.85033,3.720534 -0.42228,1.42959 -0.62289,2.970181 -0.59862,4.621602 0.0182,1.199953 0.15954,2.386667 0.4255,3.557937 0.26579,1.172967 0.67465,2.227296 1.22609,3.16163 0.5516,0.934334 1.25036,1.694022 2.09966,2.277365 0.8493,0.584871 1.86392,0.882738 3.04605,0.891903 0.82045,0.0059 1.59219,-0.145793 2.31216,-0.454353 0.72167,-0.309917 1.3841,-0.732192 1.9873,-1.267164 0.60456,-0.53616 1.13936,-1.168214 1.60577,-1.900406 0.4664,-0.730834 0.85863,-1.51632 1.17449,-2.353232 0.31908,-0.838609 0.55585,-1.706242 0.71862,-2.605613 0.16242,-0.89954 0.2354,-1.791443 0.22318,-2.676897 -0.0121,-0.884265 -0.1244,-1.812489 -0.33435,-2.781786 -0.20826,-0.969298 -0.51342,-1.889884 -0.91754,-2.763457 l 0.15819,-0.247628 z m -7.56005,12.352898 c -0.37967,-0.250683 -0.68653,-0.583513 -0.92211,-0.99815 -0.23558,-0.414638 -0.4087,-0.899371 -0.52428,-1.455389 -0.11677,-0.556018 -0.17923,-1.150054 -0.18822,-1.778884 -0.0136,-0.916174 0.0806,-1.868838 0.28106,-2.856296 0.19892,-0.988985 0.48168,-1.889884 0.84608,-2.70575 0.36457,-0.814339 0.79312,-1.482714 1.28244,-2.003938 0.48914,-0.521055 1.00867,-0.779376 1.56163,-0.774793 0.41634,0.0031 0.7748,0.133743 1.07266,0.390366 0.30058,0.258321 0.54703,0.604559 0.74119,1.040752 0.1945,0.43755 0.34335,0.952494 0.44689,1.545173 0.10302,0.594036 0.15784,1.236613 0.17006,1.926374 0.0122,0.870518 -0.073,1.780581 -0.25221,2.731548 -0.18229,0.952495 -0.42822,1.820127 -0.7383,2.605613 -0.31298,0.785486 -0.67924,1.435701 -1.10152,1.949118 -0.42227,0.514944 -0.86135,0.77021 -1.32011,0.765797 -0.52242,-0.0032 -0.97524,-0.130858 -1.35526,-0.381541 z"
     id="path3262"
     inkscape:connector-curvature="0"
     style="fill:#3b3b3b" /><path
     d="m 189.53408,56.640467 c 0.0682,0.563656 0.19739,1.06655 0.38426,1.511568 0.18839,0.44366 0.45113,0.797705 0.79159,1.063664 0.3403,0.265789 0.78549,0.399532 1.33692,0.404114 0.24305,0.0014 0.46335,-0.04413 0.66227,-0.14138 0.20061,-0.09556 0.38578,-0.262734 0.55924,-0.501367 0.17007,-0.238463 0.33708,-0.54821 0.49984,-0.929921 0.16243,-0.381202 0.33249,-0.864408 0.51189,-1.447581 l 3.44575,-11.203184 0.32197,0.0015 c 0.12169,0.946554 0.27648,1.882416 0.46487,2.806057 0.1884,0.925339 0.46793,1.759366 0.8432,2.505136 0.37373,0.746109 0.87357,1.350668 1.49799,1.812659 0.62458,0.463178 1.44164,0.697059 2.45048,0.706394 0.56365,0.0044 1.11662,-0.0852 1.65889,-0.268844 0.54108,-0.182284 1.06213,-0.411752 1.5618,-0.685179 0.50137,-0.273426 0.9693,-0.56688 1.40838,-0.878155 0.43908,-0.311614 0.83097,-0.592678 1.17755,-0.846247 l 0.22471,-5.264179 c -0.59539,0.551435 -1.20759,1.040582 -1.83217,1.470664 -0.53175,0.370678 -1.11815,0.704866 -1.7592,0.999678 -0.64105,0.294642 -1.26394,0.439078 -1.86867,0.434495 -0.21572,-0.0015 -0.42227,-0.04871 -0.61695,-0.139853 -0.19756,-0.09114 -0.37373,-0.246101 -0.53174,-0.464876 -0.15819,-0.218775 -0.28582,-0.509004 -0.38579,-0.870517 -0.10047,-0.360156 -0.15207,-0.811284 -0.16107,-1.350669 -0.005,-0.316027 0.0244,-0.709449 0.0835,-1.181962 0.0594,-0.470986 0.1261,-0.958605 0.20061,-1.461499 0.0745,-0.501367 0.13986,-0.97999 0.20062,-1.437228 0.0608,-0.457238 0.0896,-0.814339 0.0852,-1.069435 -0.005,-0.329775 -0.0623,-0.625944 -0.17465,-0.890375 -0.111,-0.262904 -0.25832,-0.486092 -0.44366,-0.667018 -0.18228,-0.182284 -0.398,-0.321968 -0.64122,-0.422275 -0.24304,-0.09878 -0.49203,-0.148848 -0.7473,-0.152073 -0.73847,-0.0061 -1.38868,0.211307 -1.94623,0.648687 -0.55754,0.439078 -1.0528,0.978463 -1.48729,1.619513 -0.43467,0.642747 -0.81451,1.332508 -1.13954,2.073865 -0.32502,0.739829 -0.61847,1.408375 -0.87815,2.006993 l -0.222,-0.0015 c -0.0379,-0.765628 -0.0636,-1.541948 -0.0743,-2.330489 -0.0105,-0.787013 -0.0214,-1.458443 -0.0289,-2.014631 -0.008,-0.464876 -0.0229,-0.832499 -0.0472,-1.10304 -0.0243,-0.270541 -0.0835,-0.477096 -0.18075,-0.619835 -0.0956,-0.144435 -0.24152,-0.235577 -0.43755,-0.273426 -0.19434,-0.03955 -0.46776,-0.06076 -0.81706,-0.06382 -0.30991,-0.0015 -0.56841,0.01511 -0.77496,0.05007 -0.20808,0.03649 -0.3812,0.109473 -0.52105,0.22183 -0.13952,0.111 -0.26121,0.264431 -0.36593,0.458936 -0.10489,0.192977 -0.20825,0.45571 -0.31162,0.783958 -0.167,0.493729 -0.33266,1.122728 -0.49678,1.886998 -0.16412,0.76427 -0.32502,1.60271 -0.48609,2.517356 -0.16107,0.913118 -0.31297,1.876305 -0.45283,2.888204 -0.13968,1.011728 -0.25815,2.005466 -0.35828,2.979176 -0.10048,0.975407 -0.17788,1.900576 -0.231,2.777204 -0.0547,0.878156 -0.0776,1.646838 -0.067,2.306219 0.007,0.600146 0.0455,1.181962 0.11541,1.745617 z"
     id="path3264"
     inkscape:connector-curvature="0"
     style="fill:#3b3b3b" /><path
     d="m 215.57697,43.242066 c 0.0182,0.316027 0.0334,0.720141 0.0473,1.215398 0.0136,0.495256 0.0319,1.043806 0.0547,1.643952 0.0226,0.600147 0.0438,1.181963 0.0653,1.744091 0.0212,0.563655 0.0484,1.074017 0.0835,1.531425 0.0331,0.458766 0.0713,0.792953 0.11541,1.002563 -0.29634,0.867463 -0.62747,1.645311 -0.99509,2.333544 -0.15479,0.297867 -0.33114,0.585041 -0.51953,0.861523 -0.19162,0.276481 -0.39342,0.522412 -0.60473,0.738302 -0.21266,0.21572 -0.43449,0.390536 -0.66837,0.522752 -0.23405,0.133573 -0.47099,0.198917 -0.71251,0.197389 -0.47081,-0.0032 -0.85541,-0.08198 -1.15311,-0.23388 -0.29769,-0.152073 -0.52869,-0.349463 -0.69281,-0.590981 -0.16548,-0.241688 -0.27937,-0.512059 -0.34641,-0.812812 -0.0636,-0.300752 -0.0988,-0.599976 -0.10319,-0.901068 -0.0105,-0.750522 0.0973,-1.589132 0.32672,-2.518883 0.22794,-0.928394 0.56671,-1.847453 1.01783,-2.758874 0.44961,-0.911591 1.01649,-1.759365 1.69708,-2.541796 0.6806,-0.78243 1.4615,-1.409902 2.33966,-1.882416 0.0134,-0.01511 0.0299,0.135271 0.0482,0.449771 z m 13.32694,7.060035 c -0.79295,0.759687 -1.55739,1.4357 -2.28788,2.029737 -0.31892,0.253569 -0.64699,0.501197 -0.98746,0.74594 -0.33707,0.2461 -0.67466,0.464875 -1.00749,0.656325 -0.33249,0.192977 -0.65004,0.343353 -0.95113,0.454183 -0.30059,0.109472 -0.57876,0.164124 -0.83403,0.162766 -0.2702,-0.0032 -0.49526,-0.09437 -0.6806,-0.276651 -0.18228,-0.180757 -0.33113,-0.4255 -0.44349,-0.73372 -0.11235,-0.30822 -0.1945,-0.657852 -0.24627,-1.049917 -0.0547,-0.388839 -0.0835,-0.802288 -0.0894,-1.238141 -0.005,-0.34488 0.0105,-0.700453 0.0441,-1.068077 0.0365,-0.367623 0.0806,-0.727609 0.13662,-1.080128 0.0547,-0.35082 0.11406,-0.67754 0.17635,-0.976934 0.0636,-0.299225 0.12593,-0.554491 0.19128,-0.764101 0.6716,-1.885301 1.36272,-3.702373 2.07709,-5.452573 0.71233,-1.748673 1.37171,-3.514148 1.97933,-5.29456 0.60456,-1.780581 1.12867,-3.61123 1.57097,-5.490591 0.44349,-1.879361 0.73694,-3.877189 0.88104,-5.990431 0.0321,-0.55449 0.0441,-1.095402 0.0365,-1.621039 -0.0119,-0.855413 -0.0849,-1.684857 -0.21878,-2.488503 -0.13187,-0.803646 -0.34012,-1.51021 -0.62594,-2.120879 -0.28242,-0.609141 -0.65005,-1.099985 -1.09982,-1.470664 -0.44824,-0.372206 -0.98915,-0.559072 -1.61968,-0.565183 -0.86118,-0.0061 -1.68927,0.284119 -2.4885,0.86899 -0.79754,0.587927 -1.54517,1.402265 -2.24223,2.44743 -0.69587,1.045164 -1.33387,2.285002 -1.91144,3.720703 -0.57706,1.435531 -1.07402,3.000561 -1.49341,4.691358 -0.41769,1.692494 -0.74882,3.47613 -0.98881,5.349381 -0.24339,1.87325 -0.36932,3.770772 -0.38154,5.691206 -1.01937,0.09725 -1.97645,0.35082 -2.87141,0.7641 -0.89461,0.413279 -1.71982,0.935861 -2.47798,1.567916 -0.75646,0.630527 -1.43111,1.353724 -2.02345,2.166365 -0.59268,0.812811 -1.09388,1.678916 -1.5041,2.599502 -0.41023,0.919229 -0.71845,1.868838 -0.9267,2.850016 -0.20672,0.981518 -0.30398,1.952343 -0.2887,2.912475 0.0122,0.945027 0.13069,1.861031 0.35235,2.748351 0.222,0.887151 0.54855,1.680274 0.98152,2.382085 0.43466,0.701981 0.97235,1.263939 1.61798,1.689269 0.64411,0.4255 1.40379,0.64122 2.27737,0.648688 0.6183,0.0046 1.2322,-0.09861 1.84134,-0.311275 0.60778,-0.212835 1.20776,-0.496954 1.80179,-0.852187 0.59234,-0.355743 1.16381,-0.774963 1.71388,-1.257999 0.55127,-0.483206 1.07114,-0.993568 1.56164,-1.529898 0.33419,0.873403 0.72472,1.573856 1.16991,2.102718 0.44349,0.528692 0.88749,0.932807 1.32793,1.213701 0.4406,0.282591 0.84591,0.467931 1.21828,0.562128 0.37102,0.09284 0.65039,0.139853 0.83861,0.141381 0.33419,0.0032 0.70045,-0.05771 1.09557,-0.182285 0.39342,-0.124408 0.79754,-0.287004 1.21235,-0.486091 0.41311,-0.198917 0.83402,-0.428385 1.25935,-0.688233 0.42703,-0.258152 0.83267,-0.521055 1.21863,-0.788541 0.91753,-0.637995 1.84745,-1.365774 2.79078,-2.182998 l -0.6823,-5.205115 z m -4.45289,-21.236115 c -0.15649,0.884096 -0.34047,1.783636 -0.55466,2.696585 -0.21572,0.914646 -0.45588,1.823182 -0.71709,2.728663 -0.2612,0.907008 -0.52275,1.771416 -0.77768,2.593392 -0.61694,1.930957 -1.29449,3.869552 -2.03313,5.812729 l -0.003,-0.224885 c -0.003,-0.224885 -0.008,-0.547023 -0.0136,-0.96777 -0.006,-0.41922 -0.008,-0.911591 -0.002,-1.473719 0.005,-0.563655 0.0199,-1.185017 0.0428,-1.868668 0.0243,-0.682293 0.0577,-1.390045 0.10014,-2.125461 0.0212,-0.360156 0.067,-0.96777 0.13527,-1.821655 0.0682,-0.855412 0.16107,-1.814017 0.28107,-2.878869 0.11829,-1.063494 0.27054,-2.165007 0.45418,-3.304369 0.18534,-1.139361 0.40581,-2.180112 0.66108,-3.123611 0.25526,-0.9435 0.5516,-1.716765 0.89343,-2.321324 0.34012,-0.604729 0.72591,-0.907008 1.15463,-0.902426 0.24305,0.0015 0.42992,0.161069 0.56213,0.477096 0.13188,0.316027 0.2035,0.879683 0.21555,1.689439 0.009,0.615252 -0.0182,1.447921 -0.0835,2.497667 -0.056,0.794312 -0.16073,1.634449 -0.31586,2.517186 z"
     id="path3266"
     inkscape:connector-curvature="0"
     style="fill:#3b3b3b" /><path
     d="m 237.72162,59.678877 c 0.78396,-0.196031 1.53753,-0.460293 2.26667,-0.793123 0.72625,-0.331132 1.42043,-0.712334 2.07981,-1.142246 0.65802,-0.428555 1.27463,-0.867463 1.84609,-1.312651 1.31571,-1.039224 2.55385,-2.237989 3.71612,-3.594597 l -2.64363,-3.037053 c -0.51647,0.566541 -1.147,1.165159 -1.88988,1.797384 -0.74459,0.631884 -1.53448,1.215228 -2.37309,1.748673 -0.83861,0.533274 -1.70285,0.976935 -2.5917,1.329283 -0.88902,0.352348 -1.73509,0.525807 -2.54349,0.519527 -0.25493,-0.0014 -0.49356,-0.03327 -0.71709,-0.09555 -0.22183,-0.06076 -0.43432,-0.168536 -0.63816,-0.32061 -0.20486,-0.150376 -0.407,-0.36321 -0.60456,-0.633412 -0.20062,-0.272069 -0.40242,-0.612197 -0.61067,-1.017839 1.16516,-0.35099 2.24257,-0.844889 3.23597,-1.482714 0.99051,-0.636637 1.8444,-1.365944 2.55843,-2.184865 0.71403,-0.82028 1.26699,-1.692325 1.66517,-2.620549 0.39478,-0.926696 0.58639,-1.85509 0.57417,-2.786369 -0.0136,-0.855412 -0.15937,-1.628677 -0.43755,-2.321493 -0.27936,-0.691289 -0.66226,-1.283797 -1.1453,-1.775999 -0.48456,-0.490843 -1.05144,-0.873572 -1.7003,-1.150054 -0.64869,-0.274954 -1.3505,-0.414637 -2.10391,-0.420747 -0.92686,-0.0075 -1.76853,0.168706 -2.52193,0.53022 -0.75341,0.36321 -1.43112,0.852357 -2.03432,1.470664 -0.60303,0.616779 -1.12579,1.333865 -1.57233,2.146677 -0.44383,0.814338 -0.81146,1.671278 -1.10016,2.569121 -0.28836,0.897843 -0.50119,1.815545 -0.63477,2.751406 -0.13391,0.937219 -0.1945,1.826067 -0.18228,2.666374 0.0182,1.245779 0.19298,2.435209 0.52581,3.570158 0.33113,1.136306 0.82011,2.137512 1.46455,3.004974 0.6441,0.86916 1.4447,1.561806 2.40042,2.078448 0.95402,0.518 2.06317,0.782261 3.32728,0.791426 0.80619,0.0073 1.60067,-0.08843 2.38463,-0.284459 z m -5.19867,-11.508348 c 0.0195,-0.464876 0.0699,-0.944857 0.15055,-1.438755 0.0803,-0.495257 0.20061,-0.984403 0.36134,-1.472192 0.15971,-0.486091 0.37526,-0.919228 0.6458,-1.298902 0.27054,-0.381372 0.60762,-0.689761 1.01496,-0.926697 0.407,-0.236935 0.89937,-0.352518 1.47643,-0.347935 0.32214,0.0015 0.59862,0.22183 0.82673,0.65938 0.22777,0.436022 0.34607,0.99204 0.3571,1.668223 0.007,0.480151 -0.15343,0.97388 -0.48168,1.481357 -0.32977,0.507476 -0.73524,0.976935 -1.21998,1.408375 -0.48456,0.43144 -1.01037,0.783958 -1.57861,1.055857 -0.56518,0.273426 -1.09099,0.408527 -1.57555,0.404114 -0.005,-0.329945 0.002,-0.727949 0.0229,-1.192825 z"
     id="path3268"
     inkscape:connector-curvature="0"
     style="fill:#3b3b3b" /><path
     d="m 244.43677,57.07649 c 0.0699,0.563486 0.19756,1.06638 0.38579,1.511567 0.18856,0.443491 0.45112,0.797536 0.79159,1.063495 0.33877,0.265789 0.78566,0.399532 1.33556,0.404114 0.24305,0.0017 0.46471,-0.04413 0.66363,-0.141211 0.20061,-0.09572 0.38578,-0.262903 0.55754,-0.501366 0.17041,-0.238463 0.33742,-0.548381 0.50154,-0.929752 0.16107,-0.381541 0.33113,-0.864577 0.51189,-1.447921 l 3.44422,-11.203013 0.32214,0.0031 c 0.12135,0.944857 0.27648,1.880888 0.4647,2.80453 0.18823,0.925169 0.46946,1.759195 0.84337,2.505305 0.37526,0.746109 0.8734,1.350668 1.49934,1.812489 0.62289,0.463349 1.44029,0.697399 2.44913,0.706394 0.56518,0.0046 1.11815,-0.08503 1.65906,-0.268844 0.54074,-0.182284 1.06349,-0.411751 1.56163,-0.685178 0.50154,-0.273427 0.971,-0.566711 1.40991,-0.878155 0.43755,-0.311445 0.82978,-0.592339 1.17585,-0.846247 l 0.22505,-5.264179 c -0.59573,0.551435 -1.20623,1.040581 -1.83217,1.470663 -0.53175,0.370849 -1.11849,0.705037 -1.75954,0.999679 -0.64105,0.294641 -1.26394,0.439077 -1.86867,0.434664 -0.21572,-0.0017 -0.42074,-0.04871 -0.61661,-0.139853 -0.1962,-0.09114 -0.3739,-0.245931 -0.53208,-0.464876 -0.15785,-0.218775 -0.28548,-0.509004 -0.38579,-0.870517 -0.0988,-0.359986 -0.1519,-0.811284 -0.16073,-1.350669 -0.003,-0.316027 0.0243,-0.709449 0.0849,-1.181962 0.0594,-0.470986 0.12627,-0.958605 0.20061,-1.460141 0.073,-0.502894 0.13985,-0.981348 0.20061,-1.440283 0.0606,-0.455711 0.0883,-0.812811 0.0852,-1.067907 -0.006,-0.329606 -0.064,-0.625945 -0.17465,-0.890376 -0.111,-0.262733 -0.25985,-0.486091 -0.44349,-0.667017 -0.18398,-0.182285 -0.39817,-0.321968 -0.64139,-0.420748 -0.24305,-0.100307 -0.49356,-0.150376 -0.74882,-0.153431 -0.73831,-0.0061 -1.38699,0.211138 -1.94454,0.648688 -0.55924,0.439077 -1.0545,0.978462 -1.48899,1.619512 -0.43433,0.642577 -0.81417,1.333866 -1.13937,2.073695 -0.32519,0.73983 -0.61694,1.408375 -0.87815,2.006994 l -0.22183,-0.0015 c -0.0365,-0.765798 -0.0623,-1.541949 -0.073,-2.330489 -0.0122,-0.787013 -0.0212,-1.458444 -0.0306,-2.014462 -0.006,-0.464876 -0.0212,-0.832499 -0.0455,-1.10304 -0.0246,-0.270371 -0.0852,-0.477096 -0.18093,-0.619834 -0.0954,-0.144436 -0.24134,-0.235578 -0.43755,-0.273427 -0.19586,-0.03955 -0.46945,-0.06076 -0.81705,-0.06382 -0.30992,-0.0015 -0.56824,0.01511 -0.77632,0.05007 -0.20656,0.03649 -0.38154,0.109472 -0.5197,0.22183 -0.13951,0.11083 -0.2612,0.264261 -0.36762,0.458765 -0.10302,0.192977 -0.20825,0.455881 -0.30992,0.783958 -0.16701,0.493729 -0.33419,1.122729 -0.49661,1.886999 -0.16413,0.7641 -0.32689,1.602709 -0.48762,2.517355 -0.16107,0.913119 -0.31331,1.876306 -0.45147,2.888204 -0.13951,1.011898 -0.25951,2.005297 -0.35998,2.979346 -0.10014,0.975238 -0.17601,1.900407 -0.23066,2.777205 -0.0547,0.878155 -0.0762,1.646838 -0.067,2.306218 0.009,0.599807 0.0467,1.181792 0.11507,1.745448 z"
     id="path3270"
     inkscape:connector-curvature="0"
     style="fill:#3b3b3b" /></svg>