<?xml version="1.0" encoding="UTF-8" standalone="no"?>
<!-- Generator: Adobe Illustrator 16.0.0, SVG Export Plug-In . SVG Version: 6.00 Build 0)  -->

<svg
   xmlns:dc="http://purl.org/dc/elements/1.1/"
   xmlns:cc="http://creativecommons.org/ns#"
   xmlns:rdf="http://www.w3.org/1999/02/22-rdf-syntax-ns#"
   xmlns:svg="http://www.w3.org/2000/svg"
   xmlns="http://www.w3.org/2000/svg"
   xmlns:sodipodi="http://sodipodi.sourceforge.net/DTD/sodipodi-0.dtd"
   xmlns:inkscape="http://www.inkscape.org/namespaces/inkscape"
   version="1.1"
   id="Layer_1"
   x="0px"
   y="0px"
   width="82px"
   height="83.863px"
   viewBox="0 0 82 83.863"
   enable-background="new 0 0 82 83.863"
   xml:space="preserve"
   inkscape:version="0.48.5 r10040"
   sodipodi:docname="icon_show.svg"><metadata
     id="metadata3043"><rdf:RDF><cc:Work
         rdf:about=""><dc:format>image/svg+xml</dc:format><dc:type
           rdf:resource="http://purl.org/dc/dcmitype/StillImage" /></cc:Work></rdf:RDF></metadata><defs
     id="defs3041" /><sodipodi:namedview
     pagecolor="#ffffff"
     bordercolor="#666666"
     borderopacity="1"
     objecttolerance="10"
     gridtolerance="10"
     guidetolerance="10"
     inkscape:pageopacity="0"
     inkscape:pageshadow="2"
     inkscape:window-width="1167"
     inkscape:window-height="931"
     id="namedview3039"
     showgrid="false"
     inkscape:zoom="2.8141135"
     inkscape:cx="41"
     inkscape:cy="22.067022"
     inkscape:window-x="1141"
     inkscape:window-y="949"
     inkscape:window-maximized="0"
     inkscape:current-layer="Layer_1" /><path
     d="m 39.764228,48.981431 -5.528499,-5.648126 c -0.344967,-0.358165 -0.718831,-0.53631 -1.121593,-0.53631 -0.404569,0 -0.778433,0.178145 -1.125206,0.53631 L 16.006673,59.917642 9.0946957,52.746848 C 8.4589454,52.030519 7.740114,51.702357 6.9345896,51.760489 c -0.8055245,0.06188 -1.5243557,0.390043 -2.160106,0.986359 -0.6339442,0.596317 -0.9500133,1.344524 -0.9500133,2.238998 v 22.406859 c 0.055989,0.840092 0.3756707,1.58455 0.9500133,2.238997 0.5743426,0.661948 1.2949799,0.988234 2.160106,0.988234 H 28.530232 c 0.865126,-0.06 1.583957,-0.388167 2.163718,-0.988234 0.570731,-0.594441 0.861514,-1.3464 0.861514,-2.238997 0,-0.8926 -0.288977,-1.644558 -0.861514,-2.237124 L 23.780166,67.894777 39.762421,51.314189 c 0.288979,-0.300033 0.431661,-0.686326 0.431661,-1.166379 0.0018,-0.418171 -0.140876,-0.808215 -0.429854,-1.166379 l 0,0 z M 76.997159,4.707775 C 76.365021,4.0495767 75.617293,3.7214153 74.752167,3.7214153 H 53.154719 c -0.865126,0.061877 -1.583958,0.3900434 -2.160107,0.9863597 -0.577954,0.596315 -0.865126,1.3445233 -0.865126,2.2389977 0,0.898225 0.285366,1.6445567 0.865126,2.2427483 l 6.998672,7.25893 -16.070756,16.582462 c -0.288977,0.354414 -0.429854,0.746333 -0.429854,1.162629 0,0.420047 0.140877,0.80634 0.429854,1.164505 l 5.528498,5.648125 c 0.344968,0.358164 0.720638,0.536309 1.125206,0.536309 0.400956,0 0.776627,-0.17627 1.125206,-0.536309 l 15.982257,-16.582463 6.910172,7.170795 c 0.518353,0.71633 1.23899,1.048241 2.1583,0.986359 0.921115,-0.05813 1.67065,-0.390042 2.244992,-0.986359 0.577956,-0.596316 0.865126,-1.344524 0.865126,-2.238999 V 6.9467727 C 77.916467,6.1104297 77.631104,5.365972 76.997159,4.707775 z"
     id="path3037"
     inkscape:connector-curvature="0"
     style="fill:#ffffff" /></svg>