<?xml version="1.0" encoding="utf-8"?>
<!-- Generator: Adobe Illustrator 16.0.0, SVG Export Plug-In . SVG Version: 6.00 Build 0)  -->
<!DOCTYPE svg PUBLIC "-//W3C//DTD SVG 1.1//EN" "http://www.w3.org/Graphics/SVG/1.1/DTD/svg11.dtd">
<svg version="1.1" id="Layer_1" xmlns="http://www.w3.org/2000/svg" xmlns:xlink="http://www.w3.org/1999/xlink" x="0px" y="0px"
	 width="500px" height="500px" viewBox="0 0 500 500" enable-background="new 0 0 500 500" xml:space="preserve">
<g id="Layer_1_1_">
	<g>
		<g>
			
				<radialGradient id="SVGID_1_" cx="-642.9656" cy="194.3499" r="389.0058" gradientTransform="matrix(1 0 0 1 891.7803 -111.5508)" gradientUnits="userSpaceOnUse">
				<stop  offset="0" style="stop-color:#EF7D00"/>
				<stop  offset="0.3857" style="stop-color:#ED7A00"/>
				<stop  offset="0.6123" style="stop-color:#E67002"/>
				<stop  offset="0.7978" style="stop-color:#DB6006"/>
				<stop  offset="0.9601" style="stop-color:#CA4B08"/>
				<stop  offset="1" style="stop-color:#C54409"/>
			</radialGradient>
			<path fill="url(#SVGID_1_)" d="M495.279,466.071c0,15.591-12.756,28.349-28.347,28.349H34.649
				c-15.591,0-28.347-12.758-28.347-28.349V33.788c0-15.591,12.756-28.347,28.347-28.347h432.283
				c15.591,0,28.347,12.756,28.347,28.347V466.071z"/>
		</g>
		<g opacity="0.57">
			
				<radialGradient id="SVGID_2_" cx="-617.7668" cy="375.5515" r="241.4233" gradientTransform="matrix(1.0127 0 0 1.0127 876.4026 -130.3901)" gradientUnits="userSpaceOnUse">
				<stop  offset="0.6135" style="stop-color:#13110C;stop-opacity:0"/>
				<stop  offset="1" style="stop-color:#13110C;stop-opacity:0.25"/>
			</radialGradient>
			<path fill="url(#SVGID_2_)" d="M6.3,466.071c0,15.591,12.756,28.349,28.347,28.349h432.286c15.591,0,28.347-12.758,28.347-28.349
				V33.788c0-15.591-12.756-28.347-28.347-28.347H34.647C19.056,5.441,6.3,18.197,6.3,33.788V466.071z"/>
		</g>
	</g>
</g>
<g>
	<path fill="#FFFFFF" d="M153.781,264.248c-0.569,18.067,14.398,33.456,31.744,33.456c17.343,0,32.491-14.427,32.573-31.46
		l0.038-31.476h-37.663C163.615,234.768,154.24,249.929,153.781,264.248z"/>
	<circle fill="#FFFFFF" cx="319.999" cy="264.745" r="32.941"/>
	<path fill="#FFFFFF" d="M254.479,74.01C160.952,73.519,84.738,148.95,84.25,242.476c-0.167,31.182,8.104,60.428,22.674,85.596
		c3.64,6.292,7.974,12.937,12.439,19.679c18.838,31.273-38.607,18.444-9.184,38.986c39.646,27.67,78.501,38.081,120.933,38.305
		c65.963,0.343,128.692-30.872,160.982-78.556c25.123-37.099,30.681-69.206,30.851-102.241
		C423.434,150.718,348.012,74.497,254.479,74.01z M185.126,324.961c-33.247,0-58.872-25.623-58.872-58.873
		c0-33.255,25.625-61.542,58.872-61.542c0.354,0,0.714,0.02,1.064,0.025v-0.031h31.945c0-12.246,0-26.774,0-39.276
		c0-1.438,0-5.993,0-6.83c0-7.519,6.062-13.615,13.582-13.615c7.514,0,13.608,6.097,13.608,13.615c0,0.636,0,15.792,0,21.222
		c0,34.539,0.006,52.506,0.006,85.099C245.332,298.007,218.376,324.961,185.126,324.961z M319.999,324.961
		c-33.255,0-60.215-26.96-60.215-60.216c0-33.257,26.96-60.216,60.215-60.216c33.25,0,60.214,26.959,60.214,60.216
		C380.213,298.001,353.249,324.961,319.999,324.961z"/>
</g>
</svg>
