<?xml version="1.0" encoding="UTF-8" standalone="no"?>
<!-- Created with Inkscape (http://www.inkscape.org/) -->

<svg
   xmlns:dc="http://purl.org/dc/elements/1.1/"
   xmlns:cc="http://creativecommons.org/ns#"
   xmlns:rdf="http://www.w3.org/1999/02/22-rdf-syntax-ns#"
   xmlns:svg="http://www.w3.org/2000/svg"
   xmlns="http://www.w3.org/2000/svg"
   xmlns:xlink="http://www.w3.org/1999/xlink"
   xmlns:sodipodi="http://sodipodi.sourceforge.net/DTD/sodipodi-0.dtd"
   xmlns:inkscape="http://www.inkscape.org/namespaces/inkscape"
   sodipodi:docname="icon_video.svg"
   inkscape:version="0.48.4 r9939"
   sodipodi:version="0.32"
   id="svg1430"
   height="48px"
   width="48px"
   version="1.1">
  <defs
     id="defs3">
    <linearGradient
       id="linearGradient3593">
      <stop
         id="stop3595"
         offset="0"
         style="stop-color:#939393;stop-opacity:1;" />
      <stop
         id="stop3597"
         offset="1.0000000"
         style="stop-color:#d9d9d9;stop-opacity:1.0000000;" />
    </linearGradient>
    <linearGradient
       id="linearGradient3575"
       inkscape:collect="always">
      <stop
         id="stop3577"
         offset="0"
         style="stop-color:#000000;stop-opacity:1;" />
      <stop
         id="stop3579"
         offset="1"
         style="stop-color:#000000;stop-opacity:0;" />
    </linearGradient>
    <linearGradient
       id="linearGradient3563">
      <stop
         id="stop3565"
         offset="0.0000000"
         style="stop-color:#ffffff;stop-opacity:1.0000000;" />
      <stop
         id="stop3567"
         offset="1.0000000"
         style="stop-color:#000000;stop-opacity:1.0000000;" />
    </linearGradient>
    <linearGradient
       id="aigrd3"
       gradientUnits="userSpaceOnUse"
       x1="21.9326"
       y1="24.6274"
       x2="21.9326"
       y2="7.1091"
       style="stroke-dasharray:none;stroke-miterlimit:4.0000000;stroke-width:1.2166667">
      <stop
         offset="0"
         style="stop-color:#D0D6E5;stroke-dasharray:none;stroke-miterlimit:4.0000000;stroke-width:1.2166667"
         id="stop16199" />
      <stop
         offset="1"
         style="stop-color:#093A80;stroke-dasharray:none;stroke-miterlimit:4.0000000;stroke-width:1.2166667"
         id="stop16201" />
    </linearGradient>
    <linearGradient
       y2="7.1091"
       x2="21.9326"
       y1="24.6274"
       x1="21.9326"
       gradientUnits="userSpaceOnUse"
       id="linearGradient16270"
       xlink:href="#aigrd3"
       inkscape:collect="always"
       gradientTransform="matrix(0.805310,0.000000,0.000000,1.744241,6.716344,2.593245)" />
    <linearGradient
       id="linearGradient2392">
      <stop
         style="stop-color:#715b26;stop-opacity:1.0000000;"
         offset="0.0000000"
         id="stop2394" />
      <stop
         style="stop-color:#312710;stop-opacity:1.0000000;"
         offset="1.0000000"
         id="stop2396" />
    </linearGradient>
    <linearGradient
       gradientTransform="matrix(0.737417,0.000000,0.000000,1.000000,6.638318,14.65107)"
       inkscape:collect="always"
       xlink:href="#linearGradient2392"
       id="linearGradient2398"
       x1="27.308506"
       y1="20.227215"
       x2="27.238144"
       y2="27.352215"
       gradientUnits="userSpaceOnUse" />
    <linearGradient
       id="linearGradient2613"
       inkscape:collect="always">
      <stop
         id="stop2615"
         offset="0"
         style="stop-color:#ffffff;stop-opacity:1;" />
      <stop
         id="stop2617"
         offset="1"
         style="stop-color:#ffffff;stop-opacity:0;" />
    </linearGradient>
    <linearGradient
       id="linearGradient2601">
      <stop
         id="stop2603"
         offset="0.0000000"
         style="stop-color:#5d5d5d;stop-opacity:1.0000000;" />
      <stop
         id="stop2605"
         offset="1.0000000"
         style="stop-color:#444444;stop-opacity:1.0000000;" />
    </linearGradient>
    <linearGradient
       id="linearGradient2502">
      <stop
         id="stop2504"
         offset="0"
         style="stop-color:#fdfdfd;stop-opacity:1;" />
      <stop
         id="stop2506"
         offset="1.0000000"
         style="stop-color:#d4d4d4;stop-opacity:1.0000000;" />
    </linearGradient>
    <linearGradient
       gradientUnits="userSpaceOnUse"
       y2="18.693317"
       x2="18.772917"
       y1="6.1102505"
       x1="2.7612331"
       id="linearGradient2508"
       xlink:href="#linearGradient2502"
       inkscape:collect="always" />
    <radialGradient
       gradientUnits="userSpaceOnUse"
       gradientTransform="matrix(2.883137,5.542409e-23,8.493709e-23,2.136047,-64.96822,-52.48586)"
       r="19.571430"
       fy="35.673447"
       fx="27.216267"
       cy="35.673447"
       cx="27.216267"
       id="radialGradient2607"
       xlink:href="#linearGradient2601"
       inkscape:collect="always" />
    <linearGradient
       gradientUnits="userSpaceOnUse"
       y2="49.142849"
       x2="21.536488"
       y1="13.142847"
       x1="5.4635010"
       id="linearGradient2619"
       xlink:href="#linearGradient2613"
       inkscape:collect="always" />
    <linearGradient
       gradientUnits="userSpaceOnUse"
       y2="18.904497"
       x2="17.930344"
       y1="42.066151"
       x1="27.426945"
       id="linearGradient3571"
       xlink:href="#linearGradient3563"
       inkscape:collect="always" />
    <radialGradient
       gradientUnits="userSpaceOnUse"
       gradientTransform="matrix(1.000000,0.000000,0.000000,0.207120,0.000000,35.11327)"
       r="22.071428"
       fy="44.285713"
       fx="24.642857"
       cy="44.285713"
       cx="24.642857"
       id="radialGradient3581"
       xlink:href="#linearGradient3575"
       inkscape:collect="always" />
    <linearGradient
       gradientUnits="userSpaceOnUse"
       y2="11.107142"
       x2="7.9285712"
       y1="15.928572"
       x1="10.678571"
       id="linearGradient3599"
       xlink:href="#linearGradient3593"
       inkscape:collect="always" />
    <linearGradient
       y2="18.693317"
       x2="18.772917"
       y1="6.1102505"
       x1="2.7612331"
       gradientUnits="userSpaceOnUse"
       id="linearGradient4385"
       xlink:href="#linearGradient2502"
       inkscape:collect="always" />
    <linearGradient
       gradientTransform="translate(-0.599666,-0.578168)"
       y2="18.693317"
       x2="18.772917"
       y1="6.1102505"
       x1="2.7612331"
       gradientUnits="userSpaceOnUse"
       id="linearGradient4387"
       xlink:href="#linearGradient2502"
       inkscape:collect="always" />
  </defs>
  <sodipodi:namedview
     inkscape:showpageshadow="false"
     inkscape:window-y="214"
     inkscape:window-x="119"
     inkscape:window-height="509"
     inkscape:window-width="686"
     inkscape:document-units="px"
     inkscape:grid-bbox="true"
     showgrid="false"
     inkscape:current-layer="layer1"
     inkscape:cy="20.959352"
     inkscape:cx="23.940203"
     inkscape:zoom="3.5"
     inkscape:pageshadow="2"
     inkscape:pageopacity="0.0"
     borderopacity="0.14117647"
     bordercolor="#666666"
     pagecolor="#ffffff"
     id="base"
     inkscape:window-maximized="0" />
  <metadata
     id="metadata4">
    <rdf:RDF>
      <cc:Work
         rdf:about="">
        <dc:format>image/svg+xml</dc:format>
        <dc:type
           rdf:resource="http://purl.org/dc/dcmitype/StillImage" />
        <dc:title>Generic Video </dc:title>
        <dc:creator>
          <cc:Agent>
            <dc:title>Jakub Steiner</dc:title>
          </cc:Agent>
        </dc:creator>
        <dc:source>http://jimmac.musichall.cz</dc:source>
        <dc:subject>
          <rdf:Bag>
            <rdf:li>video</rdf:li>
            <rdf:li>avi</rdf:li>
            <rdf:li>mov</rdf:li>
            <rdf:li>quicktime</rdf:li>
            <rdf:li>mpeg</rdf:li>
            <rdf:li>stream</rdf:li>
            <rdf:li>clip</rdf:li>
            <rdf:li>movie</rdf:li>
          </rdf:Bag>
        </dc:subject>
        <dc:contributor>
          <cc:Agent>
            <dc:title />
          </cc:Agent>
        </dc:contributor>
        <cc:license
           rdf:resource="http://creativecommons.org/licenses/by/2.0/" />
      </cc:Work>
      <cc:License
         rdf:about="http://creativecommons.org/licenses/by/2.0/">
        <cc:permits
           rdf:resource="http://web.resource.org/cc/Reproduction" />
        <cc:permits
           rdf:resource="http://web.resource.org/cc/Distribution" />
        <cc:requires
           rdf:resource="http://web.resource.org/cc/Notice" />
        <cc:requires
           rdf:resource="http://web.resource.org/cc/Attribution" />
        <cc:permits
           rdf:resource="http://web.resource.org/cc/DerivativeWorks" />
        <cc:requires
           rdf:resource="http://web.resource.org/cc/ShareAlike" />
      </cc:License>
    </rdf:RDF>
  </metadata>
  <g
     inkscape:groupmode="layer"
     inkscape:label="Layer 1"
     id="layer1">
    <rect
       style="fill:#347685"
       x="12.823473"
       y="6.0465755"
       width="21.578232"
       height="17.035959"
       id="rect5215" />
    <rect
       style="fill:#347685"
       x="12.823473"
       y="22.352423"
       width="21.578232"
       height="17.035959"
       id="rect5217" />
    <g
       transform="matrix(1.9469667,0,0,1.9469667,-21.896788,-23.157924)"
       id="g5219">
      <path
         style="fill:#333333"
         inkscape:connector-curvature="0"
         d="m 34.211,16.261 v 15 c 0,0.492 -0.174,0.912 -0.52,1.26 -0.348,0.346 -0.768,0.52 -1.26,0.52 H 14.57 c -0.48,0 -0.9,-0.174 -1.26,-0.52 -0.36,-0.348 -0.534,-0.768 -0.52,-1.26 v -15 c 0,-0.494 0.173,-0.914 0.52,-1.261 0.347,-0.347 0.767,-0.526 1.26,-0.54 h 17.861 c 0.492,0 0.912,0.18 1.26,0.54 0.346,0.36 0.52,0.78 0.52,1.261 z M 17.07,18.04 v -1.42 c 0,-0.2 -0.067,-0.373 -0.2,-0.52 -0.133,-0.146 -0.3,-0.214 -0.5,-0.201 h -1.44 c -0.187,0 -0.354,0.067 -0.5,0.201 -0.147,0.133 -0.22,0.307 -0.22,0.52 v 1.42 c 0,0.2 0.073,0.367 0.22,0.5 0.146,0.133 0.313,0.207 0.5,0.221 h 1.44 c 0.187,0 0.353,-0.074 0.5,-0.221 0.147,-0.146 0.213,-0.312 0.2,-0.5 z m 0,4.279 v -1.42 c 0,-0.199 -0.067,-0.365 -0.2,-0.5 -0.133,-0.133 -0.3,-0.206 -0.5,-0.219 h -1.44 c -0.187,0 -0.354,0.072 -0.5,0.219 -0.147,0.147 -0.22,0.314 -0.22,0.5 v 1.42 c 0,0.201 0.073,0.367 0.22,0.5 0.146,0.135 0.313,0.207 0.5,0.221 h 1.44 c 0.187,0 0.353,-0.073 0.5,-0.221 0.147,-0.146 0.213,-0.312 0.2,-0.5 z m 0,4.301 v -1.439 c 0,-0.188 -0.067,-0.354 -0.2,-0.5 -0.133,-0.146 -0.3,-0.221 -0.5,-0.221 h -1.44 c -0.187,0 -0.354,0.074 -0.5,0.221 -0.147,0.146 -0.22,0.312 -0.22,0.5 v 1.439 c 0,0.188 0.073,0.354 0.22,0.5 0.146,0.146 0.313,0.213 0.5,0.199 h 1.44 c 0.187,0 0.353,-0.066 0.5,-0.199 0.147,-0.133 0.213,-0.301 0.2,-0.5 z m 0,4.279 V 29.46 c 0,-0.187 -0.067,-0.354 -0.2,-0.5 -0.133,-0.146 -0.3,-0.213 -0.5,-0.199 h -1.44 c -0.187,0 -0.354,0.066 -0.5,0.199 -0.147,0.133 -0.22,0.301 -0.22,0.5 v 1.439 c 0,0.188 0.073,0.354 0.22,0.5 0.146,0.146 0.313,0.221 0.5,0.221 h 1.44 c 0.187,0 0.353,-0.074 0.5,-0.221 0.147,-0.146 0.213,-0.312 0.2,-0.5 z m 11.442,-8.58 V 16.62 c 0,-0.2 -0.074,-0.373 -0.221,-0.52 -0.147,-0.147 -0.312,-0.214 -0.5,-0.201 H 19.21 c -0.187,0 -0.354,0.067 -0.5,0.201 -0.147,0.133 -0.213,0.307 -0.2,0.52 v 5.699 c 0,0.201 0.066,0.367 0.2,0.5 0.133,0.135 0.3,0.207 0.5,0.221 h 8.581 c 0.201,0 0.367,-0.073 0.5,-0.221 0.133,-0.146 0.207,-0.312 0.221,-0.5 z m 0,8.58 V 25.18 c 0,-0.188 -0.074,-0.354 -0.221,-0.5 -0.147,-0.146 -0.312,-0.221 -0.5,-0.221 H 19.21 c -0.187,0 -0.354,0.074 -0.5,0.221 -0.147,0.146 -0.213,0.312 -0.2,0.5 v 5.719 c 0,0.188 0.066,0.354 0.2,0.5 0.134,0.146 0.3,0.221 0.5,0.221 h 8.581 c 0.201,0 0.367,-0.074 0.5,-0.221 0.133,-0.147 0.207,-0.312 0.221,-0.5 z M 32.791,18.04 v -1.42 c 0,-0.2 -0.072,-0.373 -0.221,-0.52 -0.146,-0.146 -0.312,-0.214 -0.5,-0.201 h -1.42 c -0.199,0 -0.365,0.067 -0.5,0.201 -0.133,0.133 -0.205,0.307 -0.219,0.52 v 1.42 c 0,0.2 0.072,0.367 0.219,0.5 0.147,0.133 0.314,0.207 0.5,0.221 h 1.42 c 0.201,0 0.367,-0.074 0.5,-0.221 0.135,-0.146 0.207,-0.312 0.221,-0.5 z m 0,4.279 v -1.42 c 0,-0.199 -0.072,-0.365 -0.221,-0.5 -0.146,-0.133 -0.312,-0.206 -0.5,-0.219 h -1.42 c -0.199,0 -0.365,0.072 -0.5,0.219 -0.133,0.147 -0.205,0.314 -0.219,0.5 v 1.42 c 0,0.201 0.072,0.367 0.219,0.5 0.146,0.135 0.314,0.207 0.5,0.221 h 1.42 c 0.201,0 0.367,-0.073 0.5,-0.221 0.135,-0.146 0.207,-0.312 0.221,-0.5 z m 0,4.301 v -1.439 c 0,-0.188 -0.072,-0.354 -0.221,-0.5 -0.146,-0.146 -0.312,-0.221 -0.5,-0.221 h -1.42 c -0.199,0 -0.365,0.074 -0.5,0.221 -0.133,0.146 -0.205,0.312 -0.219,0.5 v 1.439 c 0,0.188 0.072,0.354 0.219,0.5 0.147,0.146 0.314,0.213 0.5,0.199 h 1.42 c 0.201,0 0.367,-0.066 0.5,-0.199 0.135,-0.133 0.207,-0.301 0.221,-0.5 z m 0,4.279 V 29.46 c 0,-0.187 -0.072,-0.354 -0.221,-0.5 -0.146,-0.146 -0.312,-0.213 -0.5,-0.199 h -1.42 c -0.199,0 -0.365,0.066 -0.5,0.199 -0.133,0.133 -0.205,0.301 -0.219,0.5 v 1.439 c 0,0.188 0.072,0.354 0.219,0.5 0.147,0.146 0.314,0.221 0.5,0.221 h 1.42 c 0.201,0 0.367,-0.074 0.5,-0.221 0.135,-0.146 0.207,-0.312 0.221,-0.5 z"
         id="path5221" />
    </g>
  </g>
</svg>
