<?xml version="1.0" encoding="utf-8"?>
<!-- Generator: Adobe Illustrator 16.0.0, SVG Export Plug-In . SVG Version: 6.00 Build 0)  -->
<!DOCTYPE svg PUBLIC "-//W3C//DTD SVG 1.1//EN" "http://www.w3.org/Graphics/SVG/1.1/DTD/svg11.dtd" [
	<!ENTITY ns_flows "http://ns.adobe.com/Flows/1.0/">
	<!ENTITY ns_extend "http://ns.adobe.com/Extensibility/1.0/">
	<!ENTITY ns_ai "http://ns.adobe.com/AdobeIllustrator/10.0/">
	<!ENTITY ns_graphs "http://ns.adobe.com/Graphs/1.0/">
	<!ENTITY ns_vars "http://ns.adobe.com/Variables/1.0/">
	<!ENTITY ns_imrep "http://ns.adobe.com/ImageReplacement/1.0/">
	<!ENTITY ns_sfw "http://ns.adobe.com/SaveForWeb/1.0/">
	<!ENTITY ns_custom "http://ns.adobe.com/GenericCustomNamespace/1.0/">
	<!ENTITY ns_adobe_xpath "http://ns.adobe.com/XPath/1.0/">
]>
<svg version="1.1" id="Layer_1" xmlns:x="&ns_extend;" xmlns:i="&ns_ai;" xmlns:graph="&ns_graphs;"
	 xmlns="http://www.w3.org/2000/svg" xmlns:xlink="http://www.w3.org/1999/xlink" xmlns:a="http://ns.adobe.com/AdobeSVGViewerExtensions/3.0/"
	 x="0px" y="0px" width="47px" height="47.5px" viewBox="0 0 47 47.5" enable-background="new 0 0 47 47.5" xml:space="preserve">
<metadata><?xpacket begin="﻿" id="W5M0MpCehiHzreSzNTczkc9d"?>
<x:xmpmeta xmlns:x="adobe:ns:meta/" x:xmptk="Adobe XMP Core 5.3-c011 66.145661, 2012/02/06-14:56:27        ">
   <rdf:RDF xmlns:rdf="http://www.w3.org/1999/02/22-rdf-syntax-ns#">
      <rdf:Description rdf:about=""
            xmlns:xmp="http://ns.adobe.com/xap/1.0/"
            xmlns:xmpGImg="http://ns.adobe.com/xap/1.0/g/img/">
         <xmp:CreatorTool>Adobe Illustrator CS6 (Macintosh)</xmp:CreatorTool>
         <xmp:CreateDate>2014-04-08T20:55:53+02:00</xmp:CreateDate>
         <xmp:ModifyDate>2014-04-08T20:55:53+02:00</xmp:ModifyDate>
         <xmp:MetadataDate>2014-04-08T20:55:53+02:00</xmp:MetadataDate>
         <xmp:Thumbnails>
            <rdf:Alt>
               <rdf:li rdf:parseType="Resource">
                  <xmpGImg:width>256</xmpGImg:width>
                  <xmpGImg:height>224</xmpGImg:height>
                  <xmpGImg:format>JPEG</xmpGImg:format>
                  <xmpGImg:image>/9j/4AAQSkZJRgABAgEASABIAAD/7QAsUGhvdG9zaG9wIDMuMAA4QklNA+0AAAAAABAASAAAAAEA&#xA;AQBIAAAAAQAB/+4ADkFkb2JlAGTAAAAAAf/bAIQABgQEBAUEBgUFBgkGBQYJCwgGBggLDAoKCwoK&#xA;DBAMDAwMDAwQDA4PEA8ODBMTFBQTExwbGxscHx8fHx8fHx8fHwEHBwcNDA0YEBAYGhURFRofHx8f&#xA;Hx8fHx8fHx8fHx8fHx8fHx8fHx8fHx8fHx8fHx8fHx8fHx8fHx8fHx8fHx8f/8AAEQgA4AEAAwER&#xA;AAIRAQMRAf/EAaIAAAAHAQEBAQEAAAAAAAAAAAQFAwIGAQAHCAkKCwEAAgIDAQEBAQEAAAAAAAAA&#xA;AQACAwQFBgcICQoLEAACAQMDAgQCBgcDBAIGAnMBAgMRBAAFIRIxQVEGE2EicYEUMpGhBxWxQiPB&#xA;UtHhMxZi8CRygvElQzRTkqKyY3PCNUQnk6OzNhdUZHTD0uIIJoMJChgZhJRFRqS0VtNVKBry4/PE&#xA;1OT0ZXWFlaW1xdXl9WZ2hpamtsbW5vY3R1dnd4eXp7fH1+f3OEhYaHiImKi4yNjo+Ck5SVlpeYmZ&#xA;qbnJ2en5KjpKWmp6ipqqusra6voRAAICAQIDBQUEBQYECAMDbQEAAhEDBCESMUEFURNhIgZxgZEy&#xA;obHwFMHR4SNCFVJicvEzJDRDghaSUyWiY7LCB3PSNeJEgxdUkwgJChgZJjZFGidkdFU38qOzwygp&#xA;0+PzhJSktMTU5PRldYWVpbXF1eX1RlZmdoaWprbG1ub2R1dnd4eXp7fH1+f3OEhYaHiImKi4yNjo&#xA;+DlJWWl5iZmpucnZ6fkqOkpaanqKmqq6ytrq+v/aAAwDAQACEQMRAD8A9O6tq1lpVk13ePxjXZVG&#xA;7Mx6Ko7nFXmGt+e9a1F2WGQ2dr+zFEaMR/lONz9G2Ksdd3dizsWY9WJqcVaxV2KuxV2KuxV2KuxV&#xA;2KuxV2KuxV2KuxV2KuxV2KuxV2KuxV2KuxV2KuxV2KuxV2KtqzKwZSVYdCNjirINE88a1psirJK1&#xA;3a/tQyksaf5LmpH6sVeo6Rq1lqtkl5aNyjbZlOzKw6qw8Riry/zzrcmpa1LErf6LZkxQr2LA0dvp&#xA;I+7FWO4q7FXYq7FXYq7FXYq7FXYq7FXYq7FXYq7FXYq7FXYq7FXYq7FXYq7FXYq7FXYq7FXYq7FX&#xA;Yq7FWReRdbk03Wo4Wb/RbwiKVewYmiN9BP3Yqx53Z3Z2NWYksfEnFWsVZ55L8kWd1ZJqWpqZVlqY&#xA;LepC8QacmpQ79hirLh5W8uAU/R1vt/kDFW/8L+Xf+rbb/wDItcVUbryd5buIWjNjHHXo8Q4MPcEY&#xA;q8r1/R5dI1SayduapRopOnJG3U/1xVLsVdirsVdirsVdirsVdirsVdirsVdirsVdirsVdirsVdiq&#xA;P0LSJtX1OGxiPHmSZJOvFF3Y4q9Us/Jflu1iEYskmIHxSTfGxPjvt92Koj/C/l3/AKttv/yLXFWv&#xA;8L+Xf+rdb/8AItcVYl518k2drZvqWmJ6SxUNxb1JXiTTktakU7jFWBYq2jsjq6mjKQVPgRirWKux&#xA;V7d5dAHl/TQBT/RYT98YOKphirsVdirzD8z/APjv2/8AzCp/yckxViGKuxV2KuxV2KuxV2KuxV2K&#xA;uxV2KuxV2KuxV2KuxV2KuxVl/wCWAH6fn9rV6f8AIyPFXp+KuxV2Kpf5iAPl/UgRX/RZj90ZOKvE&#xA;cVdirsVdir2/y9/xwNM/5hIP+Ta4qj8VdirsVeYfmh/x37f/AJhE/wCTkmKsQxV2KuxV2KuxV2Ku&#xA;xV2KuxV2KuxV2KuxV2KuxV2KuxV2Ksv/ACv/AOO/cf8AMI//ACcjxV6firsVdiqA8w/8cDU/+YSf&#xA;/k22KvEMVdirsVdir2fyleRXXlyweMg+nEsLgdmiAQg/dXFU3xV2KuxV5X+ZNzDN5iVI25GCBIpK&#xA;dm5M9PucYqxXFXYq7FXYq7FXYq7FXYq7FXYq7FXYq7FXYq7FXYq7FXYqyn8t7uGDzEUkYKbiB4oy&#xA;dvi5K4H08MVeq4q7FXYqk/m++is/Ll80hAM0TQRjxaUFaD764q8ZxV2KuxV2KpjovmDVNHmMllLR&#xA;X/vImHJGp4j+IxVkX/K0dY/5ZLf/AIf/AJqxV3/K0dY/5ZLf/h/+asVULv8AMrXp4Wjijht2bb1U&#xA;Viw+XIkfhirFHd5HZ3Yu7kszMakk7kknFWsVdirsVdirsVdirsVdirsVdirsVdirsVdirsVdirsV&#xA;diraOyMHQlXUgqwNCCOhBxVlNj+ZGv20IilWK647CSQEP9JUiv3Yqif+Vo6x/wAslv8A8P8A81Yq&#xA;7/laOsf8slv/AMP/AM1Yqx7W/MWqazMsl7IOKV9OFBxRa9aDf7ycVS3FXYq7FXYq7FXYq7FXYq7F&#xA;XYq7FXYq7FXYq7FXYq7FXYq7FXYq7FXYq7FXYq7FXYq7FXYq7FXYq7FXYq7FXYq7FXYqmuheWtU1&#xA;qVltECxR/wB5PISEU+GwJJ9hirIv+VWah/y3Rf8AAtirv+VWah/y3Rf8C2KqF5+WWswwtJbzxXDK&#xA;K+kKox/1a7fecVYjLFJFI8UqlJEJV0YUIINCCMVW4q7FXYq7FXYq7FXYq7FXYq7FXYq7FXYq7FXY&#xA;q7FXYq7FW0R5HVEUs7kKqgVJJ2AAxVl9n+WWszQLJcTxW7sK+kasw/1qbV+RxVX/AOVWah/y3Rf8&#xA;C2KuP5Wah2voa/6rYqxzXPLeqaLIq3iAxvtHOhqjU7V2ofY4qleKuxV2KuxV7R5TtIrXy5YJGKep&#xA;CkznxaUByT9+KptirsVdiryv8yraKHzErxrQzwJJJ7tyZK/cgxViuKuxV2KuxV2KuxV2KuxV2Kux&#xA;V2KuxV2KuxV2KuxV2KuxVlP5cWkNx5j5yCptoXmjH+VVUH/E8Veq4q7FXYqlPmu1iufLuoJIoISF&#xA;5Vr2aNS4I+7FXi+KuxV2KuxV7f5e/wCOBpn/ADCQf8m1xVH4q7FXYq8w/ND/AI79v/zCJ/yckxVi&#xA;GKuxV2KuxV2KuxV2KuxV2KuxV2KuxV2KuxV2KuxV2KuxVl/5X/8AHfuP+YR/+TkeKvT8VdirsVQH&#xA;mH/jgan/AMwk/wDybbFXiGKuxV2KuxV7d5dIPl/TSDUfVYR90YGKphirsVdirzD80P8Ajv2//MIn&#xA;/JyTFWIYq7FXYq7FXYq7FXYq7FXYq7FXYq7FXYq7FXYq7FXYq7FWX/lgf9z8/wDzCv8A8nI8Ven4&#xA;q7FXYql3mNlXy/qRY0H1WYfSYyBirxLFXYq7FXYqzbyd55t9PtV07UgwgjJ9G4UFuIJrxZRvTwIx&#xA;VmA84eWSARqEW/jUfrGKt/4v8s/9XCL7z/TFUPe+evLVtCXW6Fw4HwxRAsxPzoFH0nFXl+uaxcav&#xA;qUt7MApegSMbhUHRcVQGKuxV2KuxV2KuxV2KuxV2KuxV2KuxV2KuxV2KuxV2KuxVG6Lq1zpOoxXt&#xA;vQtHUMh6Mp2KnFXqFh588t3UId7j6tJT4opQQQf9YAqfvxVFf4v8s/8AVwi+8/0xVo+cPLIFf0hF&#xA;t8/6Yqw/zp52ttQtTp2mktA5BuJyCvIA1CqDvSvXFWE4q7FXYq7FXYq7FXYq7FXYq7FXYq7FXYq7&#xA;FXYq7FXYq7FXYq7FXYq7FXYq7FXYq7FXYq7FXYq7FXYq7FXYq7FXYq7FXYqqfV7j/fT/APAnFXfV&#xA;7j/fT/8AAnFVrRSIKujKPEgjFVuKuxV2KuxV2KuxV2KuxV2KuxV2KuxV2KuxV2KuxV2KuxV2KuxV&#xA;ckUj7ohYDrQE4qu+r3H++n/4E4q76vcf76f/AIE4qp4q7FXYq7FXYq9Q8heWrO106HU5kEl7crzR&#xA;mAPpofs8fcjcnFWXYq7FVk9vBcRNDPGssTijI4DKR7g4q8e83aJHo+tSW0X+88iiaAHchGJFPoII&#xA;xVJcVdirsVdirsVdirsVdirsVdirsVdirsVdirsVdirsVdiqb+VNFXWNZitZCRAoMs9OvBabfSSB&#xA;ir2O2tbe1hWC3jWKFNlRAAB92KqmKuxViXnzyzaXenTalCgjvbZS7sop6iDduXuBuDiry7FXYq7F&#xA;XYq9v8vf8cDTP+YSD/k2uKo/FXYq7FXmH5of8d+3/wCYRP8Ak5JirEMVdirsVdirsVdirsVdirsV&#xA;dirsVdirsVdirsVdirsVdirL/wAr/wDjv3H/ADCP/wAnI8Ven4q7FXYqgPMP/HA1P/mEn/5Ntirx&#xA;DFXYq7FXYq9v8vf8cDTP+YSD/k2uKo/FXYq7FXmH5of8d+3/AOYRP+TkmKsQxV2KuxV2KuxV2Kux&#xA;V2KuxV2KuxV2KuxV2KuxV2KuxV2Ksv8Ayv8A+O/cf8wj/wDJyPFXp+KuxV2KoDzD/wAcDU/+YSf/&#xA;AJNtirxDFXYq7FXYq9e8kavb3+g28SsPrFoiwzR9wEFFPyKjFWQYq7FXYq8k8/apbahr5a2YPHbx&#xA;LB6g3DMrMxofm1MVY5irsVdirsVdirsVdirsVdirsVdirsVdirsVdirsVdirsVZD5E1a303X0e4I&#xA;SG4RoGkPRSxDAn25KBir10Gu46Yq7FXYqx/zxq8FhoNxEzD6xdoYYY+5DbOfkFOKvIcVdirsVdiq&#xA;taXl3ZzCa1meCUdHjYqaeG2Kpj/i/wAy/wDVwl+8f0xV3+L/ADL/ANXCX7x/TFVK68ya9dQtDPfT&#xA;PE2zJyoCPA0pXFUtxV2KuxV2KuxV2KuxV2KuxV2KuxV2KuxV2KuxV2KuxV2KuxV2Kpla+ZNetYVh&#xA;gvpUiXZU5VAHgK1piqr/AIv8y/8AVwl+8f0xV3+L/Mv/AFcJfvH9MVS26vLq7mM11M80p6vIxY/j&#xA;iqlirsVdirsVdirsVdirsVdirsVdirsVdirsVdirsVdirsVdirsVdirsVdirsVdirsVdirsVdirs&#xA;VdirsVdirsVdirsVZP5W8kXGsx/W55Db2QJCsBV3I68a7ADxxVlA/K/QO9xdV/14/wDqnirv+VX6&#xA;B/y0Xf8Awcf/AFTxVSufyu0owsLW7nSb9ky8HX6QqofxxV57qOn3Wn3stndLwmhNGHY9wR7EbjFU&#xA;PirsVdirsVdirsVdirsVdirsVdirsVdirsVdirsVdirsVV7Gxub67itLZPUnlPFF/Ek+wHXFXoNn&#xA;+V2nCEfXLuZ5v2vR4ooPgOSuTiqv/wAqv0D/AJaLv/g4/wDqnirv+VX6B/y0Xf8Awcf/AFTxVi/m&#xA;vyTPo0Yu7eQ3FiSFZmFHjJ6cqbEHxxVjGKuxV2KuxV7Z5ajSPy9pqqKA20TfSyBj+JxVMsVdirsV&#xA;eX/mcqr5ghIFC1qhY+J5uP1DFWI4q7FXYq7FXYq7FXYq7FXYq7FXYq7FXYq7FXYq7FXYq7FWW/ll&#xA;GjeYZWYVMds7IfA80X9THFXqOKuxV2Kpb5ljSTy9qSsKgW0rfSqFh+IxV4nirsVdirsVe3+Xv+OB&#xA;pn/MJB/ybXFUfirsVdirzD80P+O/b/8AMIn/ACckxViGKuxV2KuxV2KuxV2KuxV2KuxV2KuxV2Ku&#xA;xV2KuxV2KuxVl/5X/wDHfuP+YR/+TkeKvT8VdirsVQHmH/jgan/zCT/8m2xV4hirsVdirsVe2eWZ&#xA;Ul8vaayGoFtEh+aKFP4jFUyxV2KuxV5f+ZzKfMEIBqVtUDDwPqOf1HFWI4q7FXYq7FXYq7FXYq7F&#xA;XYq7FXYq7FXYq7FXYq7FXYq7FWW/llIi+YZVY0Mls6oPE80b9SnFXqOKuxV2KpZ5nmjh8u6k7mim&#xA;3kQH3dSi/i2KvFMVdiq+aJ4ZpIXFHjYow91NDiqzFWSeVvOlzoqm2lj+sWLHkErRkJ6lCex8MVZW&#xA;PzQ0Dvb3Vf8AUj/6qYq7/laGgf8ALPd/8BH/ANVMVULz80dOELfU7SZ5qfD63FFB8TxZycVefX99&#xA;dX93Jd3T+pPKau36gPYYqoYq7FXYq7FXYq7FXYq7FXYq7FXYq7FXYq7FXYq7FXYq7FVazvLmzuo7&#xA;q2cxzxHkjjscVeg2X5o2BhX69aSpOB8Rh4spPiOTIRiqI/5WhoH/ACz3f/AR/wDVTFXH80NA7W91&#xA;X/Uj/wCqmKsV81+dLjW1W2hjNvYqeRQmrOw6FqbUHhirGsVX28LzzxwIKvK6oo92NBirLfzC8uS2&#xA;l+2qQKTaXRrNT9iU9a+zdfnirD8VdirsVdirsVdirsVdirsVdirsVdirsVdirsVdirsVdirsVdir&#xA;sVdirsVdirsVdirsVdirsVdirMfy88uyXV8uqzpS1tifRr+3L7eydfnir0qaGGeJ4ZkWSJxxdGFV&#xA;IPYg4qwTW/yy5SNLpEwVTv8AVpiaD/Vff8fvxVjsnkXzTG1PqJbwKvGR/wASxVZ/gnzT/wAsD/8A&#xA;BJ/zVirv8E+af+WB/wDgk/5qxV3+CfNP/LA//BJ/zVirv8E+af8Algf/AIJP+asVd/gnzT/ywP8A&#xA;8En/ADVirv8ABPmn/lgf/gk/5qxV3+CfNP8AywP/AMEn/NWKu/wT5p/5YH/4JP8AmrFXf4J80/8A&#xA;LA//AASf81Yq7/BPmn/lgf8A4JP+asVd/gnzT/ywP/wSf81Yq7/BPmn/AJYH/wCCT/mrFXf4J80/&#xA;8sD/APBJ/wA1Yq7/AAT5p/5YH/4JP+asVd/gnzT/AMsD/wDBJ/zVirv8E+af+WB/+CT/AJqxV3+C&#xA;fNP/ACwP/wAEn/NWKu/wT5p/5YH/AOCT/mrFXf4J80/8sD/8En/NWKu/wT5p/wCWB/8Agk/5qxV3&#xA;+CfNP/LA/wDwSf8ANWKu/wAE+af+WB/+CT/mrFXf4J80/wDLA/8AwSf81Yq7/BPmn/lgf/gk/wCa&#xA;sVd/gnzT/wAsD/8ABJ/zVirv8E+af+WB/wDgk/5qxVfH5F80yNT6iV8Szxgf8SxVkOi/lkRIsurz&#xA;BlG/1aEnf/Wc0/D78VZ5DBDBEkMKCOKMcURRQADsAMVf/9k=</xmpGImg:image>
               </rdf:li>
            </rdf:Alt>
         </xmp:Thumbnails>
      </rdf:Description>
      <rdf:Description rdf:about=""
            xmlns:xmpTPg="http://ns.adobe.com/xap/1.0/t/pg/"
            xmlns:stDim="http://ns.adobe.com/xap/1.0/sType/Dimensions#"
            xmlns:xmpG="http://ns.adobe.com/xap/1.0/g/">
         <xmpTPg:NPages>1</xmpTPg:NPages>
         <xmpTPg:HasVisibleTransparency>False</xmpTPg:HasVisibleTransparency>
         <xmpTPg:HasVisibleOverprint>False</xmpTPg:HasVisibleOverprint>
         <xmpTPg:MaxPageSize rdf:parseType="Resource">
            <stDim:w>47.000000</stDim:w>
            <stDim:h>47.500000</stDim:h>
            <stDim:unit>Pixels</stDim:unit>
         </xmpTPg:MaxPageSize>
         <xmpTPg:PlateNames>
            <rdf:Seq>
               <rdf:li>Cyan</rdf:li>
               <rdf:li>Magenta</rdf:li>
               <rdf:li>Yellow</rdf:li>
               <rdf:li>Black</rdf:li>
            </rdf:Seq>
         </xmpTPg:PlateNames>
         <xmpTPg:SwatchGroups>
            <rdf:Seq>
               <rdf:li rdf:parseType="Resource">
                  <xmpG:groupName>Default Swatch Group</xmpG:groupName>
                  <xmpG:groupType>0</xmpG:groupType>
               </rdf:li>
            </rdf:Seq>
         </xmpTPg:SwatchGroups>
      </rdf:Description>
      <rdf:Description rdf:about=""
            xmlns:dc="http://purl.org/dc/elements/1.1/">
         <dc:format>image/svg+xml</dc:format>
         <dc:title>
            <rdf:Alt>
               <rdf:li xml:lang="x-default">buttons</rdf:li>
            </rdf:Alt>
         </dc:title>
      </rdf:Description>
      <rdf:Description rdf:about=""
            xmlns:xmpMM="http://ns.adobe.com/xap/1.0/mm/"
            xmlns:stRef="http://ns.adobe.com/xap/1.0/sType/ResourceRef#"
            xmlns:stEvt="http://ns.adobe.com/xap/1.0/sType/ResourceEvent#">
         <xmpMM:RenditionClass>proof:pdf</xmpMM:RenditionClass>
         <xmpMM:DocumentID>xmp.did:7FB9E72009206811822A8E0AFBAAC076</xmpMM:DocumentID>
         <xmpMM:InstanceID>xmp.iid:7FB9E72009206811822A8E0AFBAAC076</xmpMM:InstanceID>
         <xmpMM:OriginalDocumentID>uuid:e3d0a8af-fc0b-1442-85ab-a92010cdb45e</xmpMM:OriginalDocumentID>
         <xmpMM:DerivedFrom rdf:parseType="Resource">
            <stRef:instanceID>xmp.iid:7EB9E72009206811822A8E0AFBAAC076</stRef:instanceID>
            <stRef:documentID>xmp.did:7EB9E72009206811822A8E0AFBAAC076</stRef:documentID>
            <stRef:originalDocumentID>uuid:e3d0a8af-fc0b-1442-85ab-a92010cdb45e</stRef:originalDocumentID>
            <stRef:renditionClass>proof:pdf</stRef:renditionClass>
         </xmpMM:DerivedFrom>
         <xmpMM:History>
            <rdf:Seq>
               <rdf:li rdf:parseType="Resource">
                  <stEvt:action>saved</stEvt:action>
                  <stEvt:instanceID>xmp.iid:F77F117407206811822A8E0AFBAAC076</stEvt:instanceID>
                  <stEvt:when>2014-04-08T20:43:20+02:00</stEvt:when>
                  <stEvt:softwareAgent>Adobe Illustrator CS6 (Macintosh)</stEvt:softwareAgent>
                  <stEvt:changed>/</stEvt:changed>
               </rdf:li>
               <rdf:li rdf:parseType="Resource">
                  <stEvt:action>saved</stEvt:action>
                  <stEvt:instanceID>xmp.iid:7FB9E72009206811822A8E0AFBAAC076</stEvt:instanceID>
                  <stEvt:when>2014-04-08T20:55:53+02:00</stEvt:when>
                  <stEvt:softwareAgent>Adobe Illustrator CS6 (Macintosh)</stEvt:softwareAgent>
                  <stEvt:changed>/</stEvt:changed>
               </rdf:li>
            </rdf:Seq>
         </xmpMM:History>
      </rdf:Description>
      <rdf:Description rdf:about=""
            xmlns:pdf="http://ns.adobe.com/pdf/1.3/">
         <pdf:Producer>Adobe PDF library 10.01</pdf:Producer>
      </rdf:Description>
   </rdf:RDF>
</x:xmpmeta>
                                                                                                    
                                                                                                    
                                                                                                    
                                                                                                    
                                                                                                    
                                                                                                    
                                                                                                    
                                                                                                    
                                                                                                    
                                                                                                    
                                                                                                    
                                                                                                    
                                                                                                    
                                                                                                    
                                                                                                    
                                                                                                    
                                                                                                    
                                                                                                    
                                                                                                    
                                                                                                    
                           
<?xpacket end="w"?>
	</metadata>
<g>
	<path fill="#A0A0A0" d="M34.211,16.261v15c0,0.492-0.174,0.912-0.52,1.26c-0.348,0.346-0.768,0.52-1.26,0.52H14.57
		c-0.48,0-0.9-0.174-1.26-0.52c-0.36-0.348-0.534-0.768-0.52-1.26v-15c0-0.494,0.173-0.914,0.52-1.261s0.767-0.526,1.26-0.54h17.861
		c0.492,0,0.912,0.18,1.26,0.54C34.037,15.36,34.211,15.78,34.211,16.261z M17.07,18.04v-1.42c0-0.2-0.067-0.373-0.2-0.52
		c-0.133-0.146-0.3-0.214-0.5-0.201h-1.44c-0.187,0-0.354,0.067-0.5,0.201c-0.147,0.133-0.22,0.307-0.22,0.52v1.42
		c0,0.2,0.073,0.367,0.22,0.5c0.146,0.133,0.313,0.207,0.5,0.221h1.44c0.187,0,0.353-0.074,0.5-0.221
		C17.017,18.394,17.083,18.228,17.07,18.04z M17.07,22.319v-1.42c0-0.199-0.067-0.365-0.2-0.5c-0.133-0.133-0.3-0.206-0.5-0.219
		h-1.44c-0.187,0-0.354,0.072-0.5,0.219c-0.147,0.147-0.22,0.314-0.22,0.5v1.42c0,0.201,0.073,0.367,0.22,0.5
		c0.146,0.135,0.313,0.207,0.5,0.221h1.44c0.187,0,0.353-0.073,0.5-0.221C17.017,22.673,17.083,22.507,17.07,22.319z M17.07,26.62
		v-1.439c0-0.188-0.067-0.354-0.2-0.5c-0.133-0.146-0.3-0.221-0.5-0.221h-1.44c-0.187,0-0.354,0.074-0.5,0.221
		c-0.147,0.146-0.22,0.312-0.22,0.5v1.439c0,0.188,0.073,0.354,0.22,0.5c0.146,0.146,0.313,0.213,0.5,0.199h1.44
		c0.187,0,0.353-0.066,0.5-0.199C17.017,26.987,17.083,26.819,17.07,26.62z M17.07,30.899V29.46c0-0.187-0.067-0.354-0.2-0.5
		c-0.133-0.146-0.3-0.213-0.5-0.199h-1.44c-0.187,0-0.354,0.066-0.5,0.199c-0.147,0.133-0.22,0.301-0.22,0.5v1.439
		c0,0.188,0.073,0.354,0.22,0.5c0.146,0.146,0.313,0.221,0.5,0.221h1.44c0.187,0,0.353-0.074,0.5-0.221
		C17.017,31.253,17.083,31.087,17.07,30.899z M32.791,18.04v-1.42c0-0.2-0.072-0.373-0.221-0.52c-0.146-0.146-0.312-0.214-0.5-0.201
		h-1.42c-0.199,0-0.365,0.067-0.5,0.201c-0.133,0.133-0.205,0.307-0.219,0.52v1.42c0,0.2,0.072,0.367,0.219,0.5
		s0.314,0.207,0.5,0.221h1.42c0.201,0,0.367-0.074,0.5-0.221C32.705,18.394,32.777,18.228,32.791,18.04z M32.791,22.319v-1.42
		c0-0.199-0.072-0.365-0.221-0.5c-0.146-0.133-0.312-0.206-0.5-0.219h-1.42c-0.199,0-0.365,0.072-0.5,0.219
		c-0.133,0.147-0.205,0.314-0.219,0.5v1.42c0,0.201,0.072,0.367,0.219,0.5c0.146,0.135,0.314,0.207,0.5,0.221h1.42
		c0.201,0,0.367-0.073,0.5-0.221C32.705,22.673,32.777,22.507,32.791,22.319z M32.791,26.62v-1.439c0-0.188-0.072-0.354-0.221-0.5
		c-0.146-0.146-0.312-0.221-0.5-0.221h-1.42c-0.199,0-0.365,0.074-0.5,0.221c-0.133,0.146-0.205,0.312-0.219,0.5v1.439
		c0,0.188,0.072,0.354,0.219,0.5s0.314,0.213,0.5,0.199h1.42c0.201,0,0.367-0.066,0.5-0.199
		C32.705,26.987,32.777,26.819,32.791,26.62z M32.791,30.899V29.46c0-0.187-0.072-0.354-0.221-0.5
		c-0.146-0.146-0.312-0.213-0.5-0.199h-1.42c-0.199,0-0.365,0.066-0.5,0.199c-0.133,0.133-0.205,0.301-0.219,0.5v1.439
		c0,0.188,0.072,0.354,0.219,0.5s0.314,0.221,0.5,0.221h1.42c0.201,0,0.367-0.074,0.5-0.221
		C32.705,31.253,32.777,31.087,32.791,30.899z"/>
</g>
</svg>
