<?xml version="1.0" encoding="utf-8"?>
<!-- Generator: Adobe Illustrator 16.0.0, SVG Export Plug-In . SVG Version: 6.00 Build 0)  -->
<!DOCTYPE svg PUBLIC "-//W3C//DTD SVG 1.1//EN" "http://www.w3.org/Graphics/SVG/1.1/DTD/svg11.dtd">
<svg version="1.1" id="Layer_1" xmlns="http://www.w3.org/2000/svg" xmlns:xlink="http://www.w3.org/1999/xlink" x="0px" y="0px"
	 width="47px" height="47.5px" viewBox="0 0 47 47.5" enable-background="new 0 0 47 47.5" xml:space="preserve">
<metadata><?xpacket begin="﻿" id="W5M0MpCehiHzreSzNTczkc9d"?>
<x:xmpmeta xmlns:x="adobe:ns:meta/" x:xmptk="Adobe XMP Core 5.3-c011 66.145661, 2012/02/06-14:56:27        ">
   <rdf:RDF xmlns:rdf="http://www.w3.org/1999/02/22-rdf-syntax-ns#">
      <rdf:Description rdf:about=""
            xmlns:xmp="http://ns.adobe.com/xap/1.0/"
            xmlns:xmpGImg="http://ns.adobe.com/xap/1.0/g/img/">
         <xmp:CreatorTool>Adobe Illustrator CS6 (Macintosh)</xmp:CreatorTool>
         <xmp:CreateDate>2014-07-17T18:21:13+02:00</xmp:CreateDate>
         <xmp:ModifyDate>2014-07-17T18:21:13+02:00</xmp:ModifyDate>
         <xmp:MetadataDate>2014-07-17T18:21:13+02:00</xmp:MetadataDate>
         <xmp:Thumbnails>
            <rdf:Alt>
               <rdf:li rdf:parseType="Resource">
                  <xmpGImg:width>256</xmpGImg:width>
                  <xmpGImg:height>224</xmpGImg:height>
                  <xmpGImg:format>JPEG</xmpGImg:format>
                  <xmpGImg:image>/9j/4AAQSkZJRgABAgEASABIAAD/7QAsUGhvdG9zaG9wIDMuMAA4QklNA+0AAAAAABAASAAAAAEA&#xA;AQBIAAAAAQAB/+4ADkFkb2JlAGTAAAAAAf/bAIQABgQEBAUEBgUFBgkGBQYJCwgGBggLDAoKCwoK&#xA;DBAMDAwMDAwQDA4PEA8ODBMTFBQTExwbGxscHx8fHx8fHx8fHwEHBwcNDA0YEBAYGhURFRofHx8f&#xA;Hx8fHx8fHx8fHx8fHx8fHx8fHx8fHx8fHx8fHx8fHx8fHx8fHx8fHx8fHx8f/8AAEQgA4AEAAwER&#xA;AAIRAQMRAf/EAaIAAAAHAQEBAQEAAAAAAAAAAAQFAwIGAQAHCAkKCwEAAgIDAQEBAQEAAAAAAAAA&#xA;AQACAwQFBgcICQoLEAACAQMDAgQCBgcDBAIGAnMBAgMRBAAFIRIxQVEGE2EicYEUMpGhBxWxQiPB&#xA;UtHhMxZi8CRygvElQzRTkqKyY3PCNUQnk6OzNhdUZHTD0uIIJoMJChgZhJRFRqS0VtNVKBry4/PE&#xA;1OT0ZXWFlaW1xdXl9WZ2hpamtsbW5vY3R1dnd4eXp7fH1+f3OEhYaHiImKi4yNjo+Ck5SVlpeYmZ&#xA;qbnJ2en5KjpKWmp6ipqqusra6voRAAICAQIDBQUEBQYECAMDbQEAAhEDBCESMUEFURNhIgZxgZEy&#xA;obHwFMHR4SNCFVJicvEzJDRDghaSUyWiY7LCB3PSNeJEgxdUkwgJChgZJjZFGidkdFU38qOzwygp&#xA;0+PzhJSktMTU5PRldYWVpbXF1eX1RlZmdoaWprbG1ub2R1dnd4eXp7fH1+f3OEhYaHiImKi4yNjo&#xA;+DlJWWl5iZmpucnZ6fkqOkpaanqKmqq6ytrq+v/aAAwDAQACEQMRAD8A9U4q7FXYq7FXYq7FXYq7&#xA;FXYq7FXYq7FXYq7FXYq7FXYq7FXYq7FXYq7FXYq7FXYq7FXYq7FXYq7FXYq7FXYq7FXYq7FXYq7F&#xA;XYq7FXYq7FXYq7FXYq7FXYq7FXYq7FXYq7FXYq7FXYq7FXYq7FXYq7FXYq7FXYq7FXYq7FXYq7FX&#xA;Yq7FXYq7FXYq7FXYq7FXYq7FXYq7FXYq7FXYq7FXYq7FXYq7FXYq7FXYq7FXYq7FXYq7FXYq7FXY&#xA;q7FXYq7FXYq7FXYq7FXYq7FXYq7FXYq7FXYq7FXYq7FXYq7FXYq7FXYq7FXYq7FXYq7FXYq7FXYq&#xA;7FXYq7FXYq7FXYq7FXYq7FXYq7FXYq7FXYq7FXYq7FXYq7FXYq7FXYq7FXYq7FXYq7FXYq7FXYq7&#xA;FXYq7FXYq7FXYq7FXYq7FXYq7FXYq7FXYq7FXYq7FXYq7FXYq7FXYq7FXYq7FXYq7FXYq7FXYq7F&#xA;XYq7FXYq7FXYq7FXYq7FXYq7FXYq7FXYq7FXYq7FXYq7FXYq7FXYq7FXYq7FXYq7FXYq7FXYq7FX&#xA;Yq7FXYq7FXYq7FXYq7FXYq7FXYq7FXYq7FXYq7FXYq7FXYq7FXYq7FXYq7FXYq7FXYq7FXYq7FXY&#xA;q7FXYq7FXYq7FXYq7FXYq7FXYq7FXYq7FXYq7FXYq7FXYq7FXYq7FXYq7FXYq7FXYq7FXYq7FXYq&#xA;7FXYq7FXYq7FXYq7FXYq7FXYq7FXYq7FXYq7FXYq7FXYq7FXYq7FXYq7FXYq7FXYq7FXYq7FXYq7&#xA;FXYq7FXYq7FXYq7FXYq7FXYq7FXYq7FXYq7FXYq7FXYq7FXYq7FXYq7FXYq7FXYq7FXYq7FXYq7F&#xA;XYq7FXYq7FXYq7FXYq7FXYq7FXYq7FXYq7FXYq7FXYq7FXYq7FXYq7FXYq7FXYq7FXYq7FXYq7FX&#xA;Yq7FXYq7FXYq7FXYq7FXYq7FXYq7FXYq7FXYq7FXYq7FXYq7FXYq7FXYq7FXYq7FXYq7FXYq7FXY&#xA;q7FXYq7FXYq7FXYq7FXYq7FXYq7FXYq7FXYq7FXYq7FXYq7FXYq7FXYq7FXYq7FXYq7FXYq7FXYq&#xA;7FXYq7FXYq7FXYq7FXYq7FXYq7FXYq7FXYq7FXYq7FXYq7FXYq7FXYq7FXYq7FXYq7FXYq7FXYq7&#xA;FXYq7FXYq7FXYq7FXYq7FXYq7FXYq7FXYq7FXYq7FXYq7FXYq7FXYq7FXYq7FXYq7FXYq7FXYq7F&#xA;XYq7FXYq7FXYq7FXYq7FXYq7FXYq7FXYq7FXYq7FXYq7FXYq7FXYq7FXYq7FXYq7FXYq7FXYq7FX&#xA;Yq7FXYq7FXYq7FXYq7FXYq7FXYq7FXYq7FXYq7FXYq7FXYq7FXYq7FXYq7FXYq7FXYq7FXYq7FXY&#xA;q7FXYq7FXYq7FXYq7FXYq7FXYq7FXYq7FXYq7FXYq7FXYq7FXYq7FXYq7FXYq7FXYq7FXYq7FXYq&#xA;7FXYq7FXYq7FXYq7FXYq7FXYq7FXYq7FXYq7FXYq7FXYq7FXYq7FXYq7FXYq7FXYq7FXYq7FXYq7&#xA;FXYq7FXYq7FXYq7FXYq7FXYq7FXYq7FXYq7FXYq7FXYq7FXYq7FXYq7FXYq7FXYq7FXYq7FXYq7F&#xA;XYq7FXYq7FXYq7FXYq7FXYq7FXYq7FXYq7FXYq7FXYq7FXYq7FXYq7FXYq7FXYq7FXYq7FXYq7FX&#xA;Yq7FXYq7FXYq7FXYq7FXYq7FXYq7FXYq7FXYq7FXYq7FXYq7FXYq7FXYq7FXYq7FXYq7FXYq7FXY&#xA;q7FXYq7FXYq7FXYq7FXYq7FXYq7FXYq7FXYq7FXYq7FXYq7FXYq7FXYq7FXYq7FXYq7FXYq7FXYq&#xA;7FXYq7FXYq7FXYq7FXYq7FXYq7FXYq7FXYq7FXYq7FXYq7FXYq7FXYq7FXYq7FXYq7FXYq7FXYq7&#xA;FXYq7FXYq7FXYq7FXYq7FXYq7FXYq7FXYq7FXYq7FXYq7FXYq7FXYq7FXYq7FXYq7FXYq7FXYq7F&#xA;XYq7FXYq7FXYq7FXYq7FXYq7FXYq7FXYq7FXYq7FXYq7FXYq7FXYq7FXYq7FXYq7FXYq7FXYq7FX&#xA;Yq7FXYq7FXYq7FXYq7FXYq7FXYq7FXYq7FXYq7FXYq7FXYq7FXYq7FXYq7FXYq7FXYq7FXYq7FXY&#xA;q7FXYq7FXYq7FXYq7FXYq7FXYq7FXYq7FXYq7FXYq7FXYq7FXYq7FXYq7FXYq7FXYq7FXYq7FXYq&#xA;7FXYq7FXYq7FXYq7FX//2Q==</xmpGImg:image>
               </rdf:li>
            </rdf:Alt>
         </xmp:Thumbnails>
      </rdf:Description>
      <rdf:Description rdf:about=""
            xmlns:xmpTPg="http://ns.adobe.com/xap/1.0/t/pg/"
            xmlns:stDim="http://ns.adobe.com/xap/1.0/sType/Dimensions#"
            xmlns:xmpG="http://ns.adobe.com/xap/1.0/g/">
         <xmpTPg:NPages>1</xmpTPg:NPages>
         <xmpTPg:HasVisibleTransparency>False</xmpTPg:HasVisibleTransparency>
         <xmpTPg:HasVisibleOverprint>False</xmpTPg:HasVisibleOverprint>
         <xmpTPg:MaxPageSize rdf:parseType="Resource">
            <stDim:w>16.580556</stDim:w>
            <stDim:h>16.756944</stDim:h>
            <stDim:unit>Millimeters</stDim:unit>
         </xmpTPg:MaxPageSize>
         <xmpTPg:SwatchGroups>
            <rdf:Seq>
               <rdf:li rdf:parseType="Resource">
                  <xmpG:groupName>Default Swatch Group</xmpG:groupName>
                  <xmpG:groupType>0</xmpG:groupType>
               </rdf:li>
            </rdf:Seq>
         </xmpTPg:SwatchGroups>
      </rdf:Description>
      <rdf:Description rdf:about=""
            xmlns:dc="http://purl.org/dc/elements/1.1/">
         <dc:format>image/svg+xml</dc:format>
         <dc:title>
            <rdf:Alt>
               <rdf:li xml:lang="x-default">buttons</rdf:li>
            </rdf:Alt>
         </dc:title>
      </rdf:Description>
      <rdf:Description rdf:about=""
            xmlns:xmpMM="http://ns.adobe.com/xap/1.0/mm/"
            xmlns:stRef="http://ns.adobe.com/xap/1.0/sType/ResourceRef#"
            xmlns:stEvt="http://ns.adobe.com/xap/1.0/sType/ResourceEvent#">
         <xmpMM:RenditionClass>proof:pdf</xmpMM:RenditionClass>
         <xmpMM:DocumentID>xmp.did:0680117407206811822AEF62E563D251</xmpMM:DocumentID>
         <xmpMM:InstanceID>xmp.iid:0680117407206811822AEF62E563D251</xmpMM:InstanceID>
         <xmpMM:OriginalDocumentID>uuid:e3d0a8af-fc0b-1442-85ab-a92010cdb45e</xmpMM:OriginalDocumentID>
         <xmpMM:DerivedFrom rdf:parseType="Resource">
            <stRef:instanceID>xmp.iid:0580117407206811822AEF62E563D251</stRef:instanceID>
            <stRef:documentID>xmp.did:0580117407206811822AEF62E563D251</stRef:documentID>
            <stRef:originalDocumentID>uuid:e3d0a8af-fc0b-1442-85ab-a92010cdb45e</stRef:originalDocumentID>
            <stRef:renditionClass>proof:pdf</stRef:renditionClass>
         </xmpMM:DerivedFrom>
         <xmpMM:History>
            <rdf:Seq>
               <rdf:li rdf:parseType="Resource">
                  <stEvt:action>saved</stEvt:action>
                  <stEvt:instanceID>xmp.iid:F77F117407206811822A8E0AFBAAC076</stEvt:instanceID>
                  <stEvt:when>2014-04-08T20:43:20+02:00</stEvt:when>
                  <stEvt:softwareAgent>Adobe Illustrator CS6 (Macintosh)</stEvt:softwareAgent>
                  <stEvt:changed>/</stEvt:changed>
               </rdf:li>
               <rdf:li rdf:parseType="Resource">
                  <stEvt:action>saved</stEvt:action>
                  <stEvt:instanceID>xmp.iid:0680117407206811822AEF62E563D251</stEvt:instanceID>
                  <stEvt:when>2014-07-17T18:21:13+02:00</stEvt:when>
                  <stEvt:softwareAgent>Adobe Illustrator CS6 (Macintosh)</stEvt:softwareAgent>
                  <stEvt:changed>/</stEvt:changed>
               </rdf:li>
            </rdf:Seq>
         </xmpMM:History>
      </rdf:Description>
      <rdf:Description rdf:about=""
            xmlns:pdf="http://ns.adobe.com/pdf/1.3/">
         <pdf:Producer>Adobe PDF library 10.01</pdf:Producer>
      </rdf:Description>
   </rdf:RDF>
</x:xmpmeta>
                                                                                                    
                                                                                                    
                                                                                                    
                                                                                                    
                                                                                                    
                                                                                                    
                                                                                                    
                                                                                                    
                                                                                                    
                                                                                                    
                                                                                                    
                                                                                                    
                                                                                                    
                                                                                                    
                                                                                                    
                                                                                                    
                                                                                                    
                                                                                                    
                                                                                                    
                                                                                                    
                           
<?xpacket end="w"?>
	</metadata>
<path fill="#FFFFFF" d="M10.145,38.451c-0.292,0.291-0.624,0.436-0.994,0.436H6.287c-0.372,0-0.703-0.145-0.994-0.436
	C5,38.159,4.855,37.829,4.855,37.459v-2.858c0-0.396,0.146-0.729,0.438-0.992c0.292-0.265,0.623-0.397,0.994-0.397h2.864
	c0.397-0.026,0.729,0.106,0.994,0.397c0.264,0.292,0.398,0.622,0.398,0.992v2.858C10.569,37.829,10.437,38.159,10.145,38.451z
	 M10.145,29.956c-0.292,0.265-0.624,0.398-0.994,0.398H6.287c-0.372,0.026-0.703-0.106-0.994-0.398
	C5,29.667,4.855,29.336,4.855,28.964v-2.857c0-0.37,0.146-0.701,0.438-0.992c0.292-0.291,0.623-0.437,0.994-0.437h2.864
	c0.397,0,0.729,0.146,0.994,0.437c0.264,0.291,0.398,0.622,0.398,0.992v2.857C10.569,29.362,10.437,29.691,10.145,29.956z
	 M10.145,21.424c-0.292,0.291-0.624,0.436-0.994,0.436H6.287c-0.372-0.025-0.703-0.171-0.994-0.436
	C5,21.159,4.855,20.827,4.855,20.432v-2.819c0-0.37,0.146-0.701,0.438-0.992c0.292-0.291,0.623-0.437,0.994-0.437h2.864
	c0.397,0.027,0.729,0.172,0.994,0.437c0.264,0.265,0.398,0.595,0.398,0.992v2.819C10.569,20.802,10.437,21.132,10.145,21.424z
	 M32.855,38.451c-0.265,0.291-0.597,0.436-0.995,0.436H14.798c-0.398,0-0.729-0.145-0.994-0.436
	c-0.266-0.292-0.398-0.622-0.398-0.992V26.106c-0.026-0.37,0.106-0.701,0.398-0.992c0.292-0.291,0.623-0.437,0.994-0.437H31.86
	c0.373,0,0.703,0.146,0.995,0.437s0.438,0.622,0.438,0.992v11.353C33.266,37.829,33.12,38.159,32.855,38.451z M10.145,12.929
	c-0.292,0.292-0.624,0.437-0.994,0.437H6.287c-0.372-0.026-0.703-0.172-0.994-0.437C5,12.665,4.855,12.333,4.855,11.937V9.119
	c0-0.423,0.146-0.767,0.438-1.032c0.292-0.264,0.623-0.397,0.994-0.397h2.864c0.397-0.026,0.729,0.106,0.994,0.397
	c0.264,0.292,0.398,0.635,0.398,1.032v2.818C10.569,12.308,10.437,12.638,10.145,12.929z M41.367,38.451
	c-0.266,0.291-0.597,0.436-0.994,0.436H37.55c-0.373,0-0.704-0.145-0.995-0.436c-0.292-0.292-0.438-0.622-0.438-0.992v-2.858
	c0.026-0.396,0.173-0.729,0.438-0.992c0.265-0.265,0.597-0.397,0.995-0.397h2.823c0.37-0.026,0.702,0.106,0.994,0.397
	c0.291,0.292,0.438,0.622,0.438,0.992v2.858C41.778,37.829,41.632,38.159,41.367,38.451z M32.855,21.424
	c-0.265,0.291-0.597,0.436-0.995,0.436H14.798c-0.398-0.025-0.729-0.171-0.994-0.436c-0.266-0.265-0.398-0.597-0.398-0.992V9.119
	c-0.026-0.423,0.106-0.767,0.398-1.032c0.292-0.264,0.623-0.397,0.994-0.397H31.86c0.373-0.026,0.703,0.106,0.995,0.397
	c0.292,0.292,0.438,0.635,0.438,1.032v11.313C33.266,20.802,33.12,21.132,32.855,21.424z M41.367,29.956
	c-0.266,0.265-0.597,0.398-0.994,0.398H37.55c-0.373,0.026-0.704-0.106-0.995-0.398c-0.292-0.289-0.438-0.62-0.438-0.992v-2.857
	c0.026-0.37,0.173-0.701,0.438-0.992c0.265-0.291,0.597-0.437,0.995-0.437h2.823c0.37,0,0.702,0.146,0.994,0.437
	c0.291,0.291,0.438,0.622,0.438,0.992v2.857C41.778,29.362,41.632,29.691,41.367,29.956z M41.367,21.424
	c-0.266,0.291-0.597,0.436-0.994,0.436H37.55c-0.373-0.025-0.704-0.171-0.995-0.436c-0.292-0.265-0.438-0.597-0.438-0.992v-2.819
	c0.026-0.37,0.173-0.701,0.438-0.992c0.265-0.291,0.597-0.437,0.995-0.437h2.823c0.37,0.027,0.702,0.172,0.994,0.437
	c0.291,0.265,0.438,0.595,0.438,0.992v2.819C41.778,20.802,41.632,21.132,41.367,21.424z M41.367,12.929
	c-0.266,0.292-0.597,0.437-0.994,0.437H37.55c-0.373-0.026-0.704-0.172-0.995-0.437c-0.292-0.264-0.438-0.595-0.438-0.992V9.119
	c0.026-0.423,0.173-0.767,0.438-1.032c0.265-0.264,0.597-0.397,0.995-0.397h2.823c0.37-0.026,0.702,0.106,0.994,0.397
	c0.291,0.292,0.438,0.635,0.438,1.032v2.818C41.778,12.308,41.632,12.638,41.367,12.929z M43.594,5.904
	c-0.689-0.715-1.523-1.072-2.506-1.072H5.571C4.59,4.858,3.754,5.215,3.065,5.904c-0.69,0.688-1.034,1.521-1.034,2.5v29.769
	c-0.027,0.979,0.318,1.812,1.034,2.501c0.716,0.688,1.551,1.031,2.505,1.031h35.517c0.982,0,1.816-0.344,2.506-1.031
	c0.69-0.689,1.035-1.522,1.035-2.501V8.404C44.629,7.451,44.284,6.618,43.594,5.904z"/>
</svg>
