<?xml version="1.0" encoding="utf-8"?>
<!-- Generator: Adobe Illustrator 16.0.0, SVG Export Plug-In . SVG Version: 6.00 Build 0)  -->
<!DOCTYPE svg PUBLIC "-//W3C//DTD SVG 1.1//EN" "http://www.w3.org/Graphics/SVG/1.1/DTD/svg11.dtd" [
	<!ENTITY ns_flows "http://ns.adobe.com/Flows/1.0/">
	<!ENTITY ns_extend "http://ns.adobe.com/Extensibility/1.0/">
	<!ENTITY ns_ai "http://ns.adobe.com/AdobeIllustrator/10.0/">
	<!ENTITY ns_graphs "http://ns.adobe.com/Graphs/1.0/">
	<!ENTITY ns_vars "http://ns.adobe.com/Variables/1.0/">
	<!ENTITY ns_imrep "http://ns.adobe.com/ImageReplacement/1.0/">
	<!ENTITY ns_sfw "http://ns.adobe.com/SaveForWeb/1.0/">
	<!ENTITY ns_custom "http://ns.adobe.com/GenericCustomNamespace/1.0/">
	<!ENTITY ns_adobe_xpath "http://ns.adobe.com/XPath/1.0/">
]>
<svg version="1.1" id="Layer_1" xmlns:x="&ns_extend;" xmlns:i="&ns_ai;" xmlns:graph="&ns_graphs;"
	 xmlns="http://www.w3.org/2000/svg" xmlns:xlink="http://www.w3.org/1999/xlink" xmlns:a="http://ns.adobe.com/AdobeSVGViewerExtensions/3.0/"
	 x="0px" y="0px" width="47px" height="47.5px" viewBox="0 0 47 47.5" enable-background="new 0 0 47 47.5" xml:space="preserve">
<metadata><?xpacket begin="﻿" id="W5M0MpCehiHzreSzNTczkc9d"?>
<x:xmpmeta xmlns:x="adobe:ns:meta/" x:xmptk="Adobe XMP Core 5.3-c011 66.145661, 2012/02/06-14:56:27        ">
   <rdf:RDF xmlns:rdf="http://www.w3.org/1999/02/22-rdf-syntax-ns#">
      <rdf:Description rdf:about=""
            xmlns:xmp="http://ns.adobe.com/xap/1.0/"
            xmlns:xmpGImg="http://ns.adobe.com/xap/1.0/g/img/">
         <xmp:CreatorTool>Adobe Illustrator CS6 (Macintosh)</xmp:CreatorTool>
         <xmp:CreateDate>2014-04-08T20:55:19+02:00</xmp:CreateDate>
         <xmp:ModifyDate>2014-04-08T20:55:19+02:00</xmp:ModifyDate>
         <xmp:MetadataDate>2014-04-08T20:55:19+02:00</xmp:MetadataDate>
         <xmp:Thumbnails>
            <rdf:Alt>
               <rdf:li rdf:parseType="Resource">
                  <xmpGImg:width>256</xmpGImg:width>
                  <xmpGImg:height>224</xmpGImg:height>
                  <xmpGImg:format>JPEG</xmpGImg:format>
                  <xmpGImg:image>/9j/4AAQSkZJRgABAgEASABIAAD/7QAsUGhvdG9zaG9wIDMuMAA4QklNA+0AAAAAABAASAAAAAEA&#xA;AQBIAAAAAQAB/+4ADkFkb2JlAGTAAAAAAf/bAIQABgQEBAUEBgUFBgkGBQYJCwgGBggLDAoKCwoK&#xA;DBAMDAwMDAwQDA4PEA8ODBMTFBQTExwbGxscHx8fHx8fHx8fHwEHBwcNDA0YEBAYGhURFRofHx8f&#xA;Hx8fHx8fHx8fHx8fHx8fHx8fHx8fHx8fHx8fHx8fHx8fHx8fHx8fHx8fHx8f/8AAEQgA4AEAAwER&#xA;AAIRAQMRAf/EAaIAAAAHAQEBAQEAAAAAAAAAAAQFAwIGAQAHCAkKCwEAAgIDAQEBAQEAAAAAAAAA&#xA;AQACAwQFBgcICQoLEAACAQMDAgQCBgcDBAIGAnMBAgMRBAAFIRIxQVEGE2EicYEUMpGhBxWxQiPB&#xA;UtHhMxZi8CRygvElQzRTkqKyY3PCNUQnk6OzNhdUZHTD0uIIJoMJChgZhJRFRqS0VtNVKBry4/PE&#xA;1OT0ZXWFlaW1xdXl9WZ2hpamtsbW5vY3R1dnd4eXp7fH1+f3OEhYaHiImKi4yNjo+Ck5SVlpeYmZ&#xA;qbnJ2en5KjpKWmp6ipqqusra6voRAAICAQIDBQUEBQYECAMDbQEAAhEDBCESMUEFURNhIgZxgZEy&#xA;obHwFMHR4SNCFVJicvEzJDRDghaSUyWiY7LCB3PSNeJEgxdUkwgJChgZJjZFGidkdFU38qOzwygp&#xA;0+PzhJSktMTU5PRldYWVpbXF1eX1RlZmdoaWprbG1ub2R1dnd4eXp7fH1+f3OEhYaHiImKi4yNjo&#xA;+DlJWWl5iZmpucnZ6fkqOkpaanqKmqq6ytrq+v/aAAwDAQACEQMRAD8A9H+cPOGh+UtEl1jWZvSt&#xA;oyEjRRWSWQglY41qOTGn8Ttir5V89fn7558y3EsdldPoukkkR2lo5SQr/wAWzijsSOoFF9sVebTT&#xA;zTyNLNI0sjbs7ksx+ZOKrMVdirsVdirsVdirsVdirsVdirsVdirsVdirsVdirsVdirsVdirsVdir&#xA;sVdirsVdiq+KWWKRZInaORTVXUkEH2IxV6L5E/Pjzx5YuI47m6fWdKrSWyvHLsF/4qmbk6Edhuvt&#xA;ir6t8necNE83aHDrOjy+pbyfDJG1BJFKAC0UiitGWv8AEbHFXyp+fXnu48z+eLq0jkJ0nRnezs4w&#xA;fhLoeM0vzd1oD/KBirzXFXYq7FXYq7FXYq7FXYq7FXYq7FXYq7FXYq7FXYq7FXYq7FXYq7FXYq7F&#xA;XYq7FXYq7FXYq7FXYq9L/IPz3ceWfPFtZySEaVrTpZ3kZ+yJHNIJfmrtSv8AKTirzeWWSaV5ZG5S&#xA;SMXdj3ZjUnFVmKvoL8kPyI0XVtEg8z+aYzdRXdW0/TeTInpqaCWUqVYliDxWtKda1oFXsa/lR+Wq&#xA;qAPLWn0AoK26E/eRirf/ACqn8tf+pZ07/pHj/piqD1b8lvyx1Kze2fQba25ghZ7RfQlQ/wAyslOn&#xA;vUe2Kvkr8w/Jd35N82XmhTv6yQkSWtxSnqwSCqPTseze4OKsaxVGaXp7X10Iq8UUcpG70HhlmOHE&#xA;aaNRn8ON9WURaNpkahRbq3u3xH8czBiiOjpparITzX/ovTv+WaP/AIEYfDj3MfzGT+cXfovTv+Wa&#xA;P/gRj4ce5fzGT+cXfovTv+WaP/gRj4ce5fzGT+cXfovTv+WaP/gRj4ce5fzGT+cXfovTv+WaP/gR&#xA;j4ce5fzGT+cXfovTv+WaP/gRj4ce5fzGT+cXfovTv+WaP/gRj4ce5fzGT+cXfovTv+WaP/gRj4ce&#xA;5fzGT+cXfovTv+WaP/gRj4ce5fzGT+cXfovTv+WaP/gRj4ce5fzGT+cXfovTv+WaP/gRj4ce5fzG&#xA;T+cXfovTv+WaP/gRj4ce5fzGT+cVkmj6a6lTboK91HE/eMTiiejKOqyA82L6pp7WN0Yq8o2HKNvE&#xA;e/yzCyQ4TTudPn8SN9UHlbeyLyD5NvfOPmmz0K1f0vXJa4uCOQihQcnenfbYDuaDFX1pov5Ifljp&#xA;VmluuiQXrqAHub0evI5/mPP4R/sQBiqYf8qp/LX/AKlnTv8ApHj/AKYq4/lT+WpH/KM6d/0jp/TF&#xA;Xjn55fkXoulaJN5o8rQm1S0IbUdODM0fpsaGWLkWZSpI5L0puKU3VfPmKr4ZpIZkmiYpLGweNh1D&#xA;Kag/fiqzFXYq+7fy2RU/LvyuFAA/RNiaDxNuhJ+84qyPFXYq7FXyr/zlUB/ysPT/AH0mH/qJuMVe&#xA;M4qnnlX/AHon/wBQfrzJ03Mut7R+kMlzMdS7FXYq7FXYq7FXYq7FXYq7FXYq7FXYq7FWOea/7y2+&#xA;TfrGYmp6O17N5SSHMV2b2b/nFVVP5h35IBK6TMQfA/WbcYq+qsVdirsVY5+ZKq35eeaAwBH6JvjQ&#xA;77i2cg/QcVfCWKuxV2KuxV93flx/5Lzyv/2yLD/qGjxVkWKuxV2KvlX/AJyr/wDJh6d/2yIf+om4&#xA;xV4ziqeeVf8Aeif/AFB+vMnTcy63tH6QyXMx1LsVdirsVdirsVdirsVdirsVdirsVdirsVY55r/v&#xA;Lb5N+sZiano7Xs3lJIcxXZvZv+cVP/Jh6j/2yJv+om3xV9VYq7FXYqx38x//ACXnmj/tkX//AFDS&#xA;Yq+EcVdirsVdir7e/J7WrTVvy18vy20iv9Vs4rKdVO6S2qCJlYdj8Nfka4qzLFXYq7FXyX/zk7ql&#xA;ne/mTHDbSCR9P0+G1uabhZfUlmK/Qsq4q8jxVPPKv+9E/wDqD9eZOm5l1vaP0hkuZjqXYq7FXYq7&#xA;FXYq7FXYq7FXYq7FXYq7FXYqxzzX/eW3yb9YzE1PR2vZvKSQ5iuzes/84y6vZaf+ZJiunEZ1Kxms&#xA;7YsaAymSKVV+kQkD3xV9b4q7FXYqwv8AOXXbTRvy016W4cK15ayWNuh6vLdIYgFHcgMW+QJxV8R4&#xA;q7FXYq7FWT+R/wAxvNXku8e40O6CRzU+s2co9SCWnTmlRuP5lIPvir0cf85Xec6CukacT3IE4/5m&#xA;Yq3/ANDXecv+rRp33T/9VMVQOs/85QfmBfWL21pb2WmySAg3UCO8qg/yeo7oD78TiryKeee4nkuL&#xA;iRpp5mMksshLO7saszMdySdyTiqniqeeVf8Aeif/AFB+vMnTcy63tH6QyXMx1LsVdirsVdirsVdi&#xA;rsVdirsVdirsVdirsVY55r/vLb5N+sZiano7Xs3lJIcxXZr4pZYpUlido5Y2DRyKSrKymoII3BBx&#xA;V6zoP/OTX5haZZJa3aWmq+mAEubpHE1B/M0ToG+ZWvicVTP/AKGu85f9WjTvun/6qYq7/oa7zl/1&#xA;aNO+6f8A6qYq8589/mT5q87XkdxrdwvpQV+rWUCmOCLl14qSxJP8zEn3xVi2KuxV2KuxV2KuxV2K&#xA;uxV2KuxVPPKv+9E/+oP15k6bmXW9o/SGS5mOpdirsVdirsVdirsVdirsVdirsVdirsVdirHPNf8A&#xA;eW3yb9YzE1PR2vZvKSQ5iuzdirsVdirsVdirsVdirsVdirLfIH5YeavPN1JHo8SJa25Aub+4JSCM&#xA;ncLUBmZv8lQfemKvSh/zib5ipvr1nX/jFLirv+hTfMP/AFfrT/kVLiqA1r/nFrzrZ2T3GnX1pqUs&#xA;YJNqpeGRqDohccCfmwxV45dWtzaXMtrdRNBcwO0c0MgKujoaMrKdwQRviqliqeeVf96J/wDUH68y&#xA;dNzLre0fpDJczHUuxV2KuxV2KuxV2KuxV2KuxV2KuxV2KuxVjnmv+8tvk36xmJqejtezeUkhzFdm&#xA;vggmnmjggRpZpWCRRoCzMzGiqoG5JOKvZdE/5xa863tilzqF9aaZNIAwtG5yyKD2kKDgD7BjiqP/&#xA;AOhTfMP/AFfrT/kVLirm/wCcTvMfE8ddsy1NgY5QK/PfFXmnn38sfNfke6jj1mBWtpyRbX8BLwSE&#xA;blQxClW/yWAOKsTxV2KuxV2Kvt/8oNHtNK/LXy9DbIFFzZQ3kxHVpbpBM5J7/bp8hirMcVdirsVf&#xA;Jf8Azk9ptpZ/mTHNboEe/wBPgubmn7Uoklh5f8BCuKvI8VTzyr/vRP8A6g/XmTpuZdb2j9IZLmY6&#xA;l2KuxV2KuxV2KuxV2KuxV2KuxV2KuxV2Ksc81/3lt8m/WMxNT0dr2bykkOYrs3rH/OM2j2eo/mV6&#xA;1yoc6ZZTXluCKj1Q8cIP0CYke+KvrjFXYq7FWIfm7pNpqn5a+YoblA4gsZruIkVKy2yGZGHgapTF&#xA;Xw9irsVdirsVfd35cf8AkvPK/wD2yLD/AKho8VZFirsVdir5V/5yr/8AJh6d/wBsiH/qJuMVeM4q&#xA;nnlX/eif/UH68ydNzLre0fpDJczHUuxV2KuxV2KuxV2KuxV2KuxV2KuxV2KuxVjnmv8AvLb5N+sZ&#xA;iano7Xs3lJIcxXZvZv8AnFT/AMmHqP8A2yJv+om3xV9VYq7FXYqx38x//JeeaP8AtkX/AP1DSYq+&#xA;EcVdirsVdir7t/LV0f8ALvyuVNQNJslr7rboD+IxVkeKuxV2KvlX/nKv/wAmHp3/AGyIf+om4xV4&#xA;ziqeeVf96J/9QfrzJ03Muu7R+ke9kuZjqHYq7FXYq7FXYq7FXYq7FXYq7FXYq7FXYqxzzWR6luO/&#xA;Fv1jMTU8w7Xs3lJIcxXZvZv+cVWUfmHfgkAtpMwA8T9Ztzir6qxV2KuxVjf5lyxx/l15naRgqnSr&#xA;1QT/ADPbuqj6SaYq+E8VdirsVdir3X8lfz707y9pUPlrzOHXT7ct9R1KNWk9JGPIxyooLlQSeJWp&#xA;7UxV7On5z/la6hh5jtQCKipdT9IKg4q3/wArl/K//qY7T/gm/piqX63+fv5YaXZPPHqy6hMBWO1t&#xA;Ed3c+HIhUX/ZMMVfKfnzznqPnHzPda7fKImmokFupqsUKCiICeviT3NTirHsVRWnXz2V0JlHJacX&#xA;XxU5PHPhNtOfCMkaZPFrumSKG9YIe6sCCMzRmierppaPIDyX/pjTP+WhMPix72P5XJ/NLv0xpn/L&#xA;QmPix71/K5P5pd+mNM/5aEx8WPev5XJ/NLv0xpn/AC0Jj4se9fyuT+aXfpjTP+WhMfFj3r+VyfzS&#xA;79MaZ/y0Jj4se9fyuT+aXfpjTP8AloTHxY96/lcn80u/TGmf8tCY+LHvX8rk/ml36Y0z/loTHxY9&#xA;6/lcn80u/TGmf8tCY+LHvX8rk/ml36Y0z/loTHxY96/lcn80u/TGmf8ALQmPix71/K5P5pWy65pk&#xA;alvWDHsqgknAc0R1ZR0eQnkxfUb9725MzDitOKL4KMwsk+I27nBhGONIXINyfeSPOGp+UPMlprun&#xA;gPLbkrLA5ISWJxR42p4joexoe2Kvqry//wA5Bfllq1mks+pfou5I/e2l4jqynvR1DRsPCjfQMVTX&#xA;/lcv5X/9THaf8E39MVc35zflcqknzHaUAqaFifuC4q8Z/PD89dM8waU/lryu7yWE7KdQ1FlaMSKh&#xA;DCKJWAfjyALEgdKdMVeEYq7FXYq7FXYq7FXYq7FXYq7FXYq7FXYq7FXYq7FXYq7FXYq7FXYq7FXY&#xA;q7FXYq7FXYq7FXYq7FXYq7FXYq7FXYq7FWwK7DriqI/R2of8ss3/ACLb+mKu/R2of8ss3/Itv6Yq&#xA;py2t1CoaaF41JoC6lRX6RiqlirsVdiq4I5FQpI9hjSCQ705P5T9xw0vEHenJ/KfuONLxB3pyfyn7&#xA;jjS8Qd6cn8p+440vEHenJ/KfuONLxB3pyfyn7jjS8Qd6cn8p+440vEHenJ/KfuONLxB3pyfyn7jj&#xA;S8Qd6cn8p+440vEHenJ/KfuONLxB3pyfyn7jjS8QcUcCpUge4wUoIW4pdirsVVYrW5mBMMLyAbEo&#xA;pan3Yqqfo7UP+WWb/kW39MVd+jtQ/wCWWb/kW39MVQ5FNj1xVrFXYq7FXYq+rf8AnH78rtG0ry1Z&#xA;eaL63S51vU4xcQSSqGFvCxrH6VejMtGLdd6fNV7HirsVQ+oadYalZy2WoW8d3aTDjLBModGHurVG&#xA;Kvi/85PI1v5M88XOmWZP6OuI1vLBWJLLDKWXgSdzwdGUHwGKsHxVMdDsEvLuku8UY5Mvj2Ay3DDi&#xA;O7i6zMccNuZZciIihUUKo2CgUAzPAdESTuV2FDsVdirsVdirsVdirsVdirsVdirsVWuiOpVwGU7F&#xA;TuDgISCRuGJa5p6Wd0PS2ilHJR4HuMwc0OE7O80ec5I78wluUuWzP8o/I8fnPztaaTcFlsI1a61A&#xA;rsxgipVQR05sypXtWuKvtPS9K03SrGKw021js7OEcYoIVCIB8h38TiqKxV2KvHf+cgfyt0fV/LV7&#xA;5osoEttb0yM3E8sahRcQpvIJadWVasrddqfJV8o4q7FXYq7FX3d+XH/kvPK//bIsP+oaPFWRYq7F&#xA;XYq+Vf8AnKv/AMmHp3/bIh/6ibjFXjOKp55V/wB6J/8AUH68ydNzLre0fpDJczHUuxV2KuxV2Kux&#xA;V2KuxV2KuxV2KuxV2KuxVjnmv+8tvk36xmJqejtezeUkhzFdm9m/5xU/8mHqP/bIm/6ibfFX1Vir&#xA;sVdirHfzH/8AJeeaP+2Rf/8AUNJir4RxV2KuxV2Kvu78uP8AyXnlf/tkWH/UNHirIsVdirsVfKv/&#xA;ADlX/wCTD07/ALZEP/UTcYq8ZxVPPKv+9E/+oP15k6bmXW9o/SGS5mOpdirsVdirsVdirsVdirsV&#xA;dirsVdirsVdirHPNf95bfJv1jMTU9Ha9m8pJDmK7N7N/zip/5MPUf+2RN/1E2+KvqrFXYq7FWO/m&#xA;P/5LzzR/2yL/AP6hpMVfCOKuxV2KuxV9l/kT5x03zB5A020ilX9IaPBHZXtsSOaCIcInp/K6KKHx&#xA;qO2KvRcVdiriQBU9MVfHn/OQ3mrS/MX5hu+mSLPbabax2BuEIZJHjkkkcoR1AaXjX2xV5liqeeVf&#xA;96J/9QfrzJ03Mut7R+kMlzMdS7FXYq7FXYq7FXYq7FXYq7FXYq7FXYq7FWOea/7y2+TfrGYmp6O1&#xA;7N5SSHMV2b0j8gfN+neWfzChm1F1hs9RgfT5LhzRYjK6OjMew5xKpPatcVfZAIIBBqDuCMVdirsV&#xA;edfnv5y0/wAv/l/qNpJKv6Q1mGSxs7ao5sso4SvTrxSNjv40HfFXxpirsVdirsVRuka1q+jXq3uk&#xA;3s1jdoKCe3do2oeoJUioPcHFWTf8rl/ND/qY7v8A4Jf6Yq7/AJXL+aH/AFMd3/wS/wBMVQmq/md+&#xA;YOq2b2Woa/eTWkopLD6hVXHgwTjyHscVYvirsVTzyr/vRP8A6g/XmTpuZdb2j9IZLmY6l2KuxV2K&#xA;uxV2KuxV2KuxV2KuxV2KuxV2Ksc81/3lt8m/WMxNT0dr2bykkOYrs3YqyjSvzO/MDSbKOx0/XryC&#xA;0iFIofULKg/lXly4j2G2Kov/AJXL+aH/AFMd3/wS/wBMVd/yuX80P+pju/8Agl/pirGNW1nVtXvG&#xA;vdVvJr67fZp7h2keg6CrE7DwxVB4q7FXYq7FXYq7FXYq7FXYq7FU88q/70T/AOoP15k6bmXW9o/S&#xA;GS5mOpdirsVdirsVdirsVdirsVdirsVdirsVdirHPNf95bfJv1jMTU9Ha9m8pJDmK7N2KuxV2Kux&#xA;V2KuxV2KuxV2KvVPym/IrUvO1sdXv7k6boQYpFIq8pp2U0b0wfhCqdi5rvsAd6KvVh/zip+XtBXU&#xA;dWJ7kTWw/wCxfFXf9Cqfl5/1cdX/AOR1t/2T4qhNU/5xR8pPZuNK1e/gvKH03ujDNFXsGWOOFv8A&#xA;hsVfOXmPy9qvl3W7vRtVi9G+s34SqDVSCOSsp7qykMD4YqluKp55V/3on/1B+vMnTcy63tH6QyXM&#xA;x1LsVdirsVdirsVdirsVdirsVdirsVdirsVY55r/ALy2+TfrGYmp6O17N5SSHMV2aYaDoWp69rFr&#xA;pGlwme+vHEcMY2FepJJ6KoFSewxV9F6L/wA4o+Wksk/Ter3s98QDIbL0oYge4X1Y5mYDx2+QxVH/&#xA;APQqn5ef9XHV/wDkdbf9k+Ku/wChVPy8/wCrjq//ACOtv+yfFXlX5t/kVf8Akm1XWNPuW1HQiwjm&#xA;kdQs1uzGiepx+FlY7BhTfanSqryrFXYq7FXYq+6vywtobf8ALjyxHEvFW0y0kI/ypYVkc/SzE4qy&#xA;bFXYq7FXyn/zlRFGn5i2TIoVpdKheQj9phPOtT/sVAxV43iqeeVf96J/9QfrzJ03Mut7R+kMlzMd&#xA;S7FXYq7FXYq7FXYq7FXYq7FXYq7FXYq7FWOea/7y2+TfrGYmp6O17N5SSHMV2b2L/nFm3hl/Ma7k&#xA;kUM9vpc8kJP7LGaCOo/2LsMVfV2KuxV2KsZ/M+2huPy58zxzKGRdLu5AD/NFC0iH6GUHFXwrirsV&#xA;dirsVfd35cf+S88r/wDbIsP+oaPFWRYq7FXYq+Vf+cq//Jh6d/2yIf8AqJuMVeM4qnnlX/eif/UH&#xA;68ydNzLre0fpDJczHUuxV2KuxV2KuxV2KuxV2KuxV2KuxV2KuxVjnmv+8tvk36xmJqejtezeUkhz&#xA;Fdm9m/5xU/8AJh6j/wBsib/qJt8VfVWKuxV2Ksd/Mf8A8l55o/7ZF/8A9Q0mKvhHFXYq7FXYq+6P&#xA;yuu4Lr8uPLMsLckXTLWInb7cMSxONvB0IxVlGKuxV2KvlP8A5yoljf8AMWyVGDNHpUKyAfssbidq&#xA;H/YsDirxvFU78rMPrUy13KAgfI5k6bmXXdoj0j3smzMdQ7FXYq7FXYq7FXYq7FXYq7FXYq7FXYq7&#xA;FWN+amUzW61+IKxI9iRT9WYepO4dt2aNiUizGdk9i/5xZuIYvzGu45GCvcaXPHCD+0wmgkoP9ijH&#xA;FX1dirsVdirFvzTvILP8t/M0s7BEbTbmEEmnxzxGJB9LuBir4YxV2Kq97aTWd5PZzrxntpHhlU9n&#xA;jYqw+8YqoYq9P/Kb88NU8jQtpd3bnUtCkcyLAH4ywO32jExqOLdSh2ruCN6qvWx/zlX+XtBXTtWB&#xA;7gQ2x/7GMVd/0NX+Xn/Vu1f/AJE23/ZRiqA1r/nK7y0lk/6E0i9nviCIxe+lDED2LelJMzAeG3zG&#xA;KvnTX9e1XX9YutX1WY3F9dvzmkOw6UCqBsFUCgHhiqX4qrWtzLbTrNEaOv3EdwclGRBsMMmMTjRZ&#xA;BH5ptCg9WKRX7haMPvJXMoakdQ6uXZ0r2IXf4o0//fcv3L/zVh/Mx82P8nZO8fj4O/xRp/8AvuX7&#xA;l/5qx/Mx81/k7J3j8fB3+KNP/wB9y/cv/NWP5mPmv8nZO8fj4O/xRp/++5fuX/mrH8zHzX+TsneP&#xA;x8Hf4o0//fcv3L/zVj+Zj5r/ACdk7x+Pg7/FGn/77l+5f+asfzMfNf5Oyd4/Hwd/ijT/APfcv3L/&#xA;AM1Y/mY+a/ydk7x+Pg7/ABRp/wDvuX7l/wCasfzMfNf5Oyd4/Hwd/ijT/wDfcv3L/wA1Y/mY+a/y&#xA;dk7x+Pg7/FGn/wC+5fuX/mrH8zHzX+TsnePx8Hf4o0//AH3L9y/81Y/mY+a/ydk7x+Pg7/FGn/77&#xA;l+5f+asfzMfNf5Oyd4/HwWyeabQIfSikZ+waij7wWwHUjoGUezpXuQx+6uZrmdppTV2+4DwGYspE&#xA;my7THjEI0FHIs0dous6lomq22q6ZObe/s3EkEy02I23B2IINCD1GKvovQv8AnK7y81jGNe0i7ivg&#xA;AJTY+lLEzD9pRLJEy18N6eOKpj/0NX+Xn/Vu1f8A5E23/ZRirj/zlX+XtDTTtWJ7Aw2w/wCxjFXk&#xA;v5ufnfqHnmKPTLO3bTtCicSNCzcpZ3H2WlI2AXsorvvU7UVeX4qiNPsZ7/ULaxtxynu5UghUd3kY&#xA;Ko+84q9g/wCcjvy1utI8wS+a7CIvpGquGvCo2gum+1y/yZT8QP8ANUeGKvF8VdirsVdirsVdirsV&#xA;dirsVdirsVdirsVdirsVdirsVdirsVdirsVdirsVdirsVdirsVdirsVdir2v/nG78t7nVdfTzZfw&#xA;ldK0tibIuNprobAr4rF9qv8ANT3xV9PX1jZ39nNZXsCXNpcKY54JVDI6t1DKdjirwDzz/wA4tGS4&#xA;kvPJ16kcbkt+jL1movekU4DEjsA4/wBlirza5/IP82beTgdCaQdnintnU/dJUfTiql/yov8ANf8A&#xA;6l6b/kbB/wBVMVd/yov81/8AqXpv+RsH/VTFXf8AKi/zX/6l6b/kbB/1UxV3/Ki/zX/6l6b/AJGw&#xA;f9VMVd/yov8ANf8A6l6b/kbB/wBVMVd/yov81/8AqXpv+RsH/VTFXf8AKi/zX/6l6b/kbB/1UxV3&#xA;/Ki/zX/6l6b/AJGwf9VMVd/yov8ANf8A6l6b/kbB/wBVMVd/yov81/8AqXpv+RsH/VTFXf8AKi/z&#xA;X/6l6b/kbB/1UxV3/Ki/zX/6l6b/AJGwf9VMVd/yov8ANf8A6l6b/kbB/wBVMVd/yov81/8AqXpv&#xA;+RsH/VTFXf8AKi/zX/6l6b/kbB/1UxV3/Ki/zX/6l6b/AJGwf9VMVd/yov8ANf8A6l6b/kbB/wBV&#xA;MVd/yov81/8AqXpv+RsH/VTFXf8AKi/zX/6l6b/kbB/1UxV3/Ki/zX/6l6b/AJGwf9VMVd/yov8A&#xA;Nf8A6l6b/kbB/wBVMVd/yov81/8AqXpv+RsH/VTFXf8AKi/zX/6l6b/kbB/1UxV3/Ki/zX/6l6b/&#xA;AJGwf9VMVd/yov8ANf8A6l6b/kbB/wBVMVd/yov81/8AqXpv+RsH/VTFVW3/ACD/ADZnfiNBZB3a&#xA;Se2QD75f1Yq9G8jf84tSrcx3nnG9jaFCG/RlmzHn7STELQeIQf7IYq+grGwstPs4bKygS2tLdBHB&#xA;BGoVERdgABir/9k=</xmpGImg:image>
               </rdf:li>
            </rdf:Alt>
         </xmp:Thumbnails>
      </rdf:Description>
      <rdf:Description rdf:about=""
            xmlns:xmpTPg="http://ns.adobe.com/xap/1.0/t/pg/"
            xmlns:stDim="http://ns.adobe.com/xap/1.0/sType/Dimensions#"
            xmlns:xmpG="http://ns.adobe.com/xap/1.0/g/">
         <xmpTPg:NPages>1</xmpTPg:NPages>
         <xmpTPg:HasVisibleTransparency>False</xmpTPg:HasVisibleTransparency>
         <xmpTPg:HasVisibleOverprint>False</xmpTPg:HasVisibleOverprint>
         <xmpTPg:MaxPageSize rdf:parseType="Resource">
            <stDim:w>47.000000</stDim:w>
            <stDim:h>47.500000</stDim:h>
            <stDim:unit>Pixels</stDim:unit>
         </xmpTPg:MaxPageSize>
         <xmpTPg:PlateNames>
            <rdf:Seq>
               <rdf:li>Cyan</rdf:li>
               <rdf:li>Magenta</rdf:li>
               <rdf:li>Yellow</rdf:li>
               <rdf:li>Black</rdf:li>
            </rdf:Seq>
         </xmpTPg:PlateNames>
         <xmpTPg:SwatchGroups>
            <rdf:Seq>
               <rdf:li rdf:parseType="Resource">
                  <xmpG:groupName>Default Swatch Group</xmpG:groupName>
                  <xmpG:groupType>0</xmpG:groupType>
               </rdf:li>
            </rdf:Seq>
         </xmpTPg:SwatchGroups>
      </rdf:Description>
      <rdf:Description rdf:about=""
            xmlns:dc="http://purl.org/dc/elements/1.1/">
         <dc:format>image/svg+xml</dc:format>
         <dc:title>
            <rdf:Alt>
               <rdf:li xml:lang="x-default">buttons</rdf:li>
            </rdf:Alt>
         </dc:title>
      </rdf:Description>
      <rdf:Description rdf:about=""
            xmlns:xmpMM="http://ns.adobe.com/xap/1.0/mm/"
            xmlns:stRef="http://ns.adobe.com/xap/1.0/sType/ResourceRef#"
            xmlns:stEvt="http://ns.adobe.com/xap/1.0/sType/ResourceEvent#">
         <xmpMM:RenditionClass>proof:pdf</xmpMM:RenditionClass>
         <xmpMM:DocumentID>xmp.did:7EB9E72009206811822A8E0AFBAAC076</xmpMM:DocumentID>
         <xmpMM:InstanceID>xmp.iid:7EB9E72009206811822A8E0AFBAAC076</xmpMM:InstanceID>
         <xmpMM:OriginalDocumentID>uuid:e3d0a8af-fc0b-1442-85ab-a92010cdb45e</xmpMM:OriginalDocumentID>
         <xmpMM:DerivedFrom rdf:parseType="Resource">
            <stRef:instanceID>xmp.iid:FF7F117407206811822A8E0AFBAAC076</stRef:instanceID>
            <stRef:documentID>xmp.did:FF7F117407206811822A8E0AFBAAC076</stRef:documentID>
            <stRef:originalDocumentID>uuid:e3d0a8af-fc0b-1442-85ab-a92010cdb45e</stRef:originalDocumentID>
            <stRef:renditionClass>proof:pdf</stRef:renditionClass>
         </xmpMM:DerivedFrom>
         <xmpMM:History>
            <rdf:Seq>
               <rdf:li rdf:parseType="Resource">
                  <stEvt:action>saved</stEvt:action>
                  <stEvt:instanceID>xmp.iid:F77F117407206811822A8E0AFBAAC076</stEvt:instanceID>
                  <stEvt:when>2014-04-08T20:43:20+02:00</stEvt:when>
                  <stEvt:softwareAgent>Adobe Illustrator CS6 (Macintosh)</stEvt:softwareAgent>
                  <stEvt:changed>/</stEvt:changed>
               </rdf:li>
               <rdf:li rdf:parseType="Resource">
                  <stEvt:action>saved</stEvt:action>
                  <stEvt:instanceID>xmp.iid:7EB9E72009206811822A8E0AFBAAC076</stEvt:instanceID>
                  <stEvt:when>2014-04-08T20:55:19+02:00</stEvt:when>
                  <stEvt:softwareAgent>Adobe Illustrator CS6 (Macintosh)</stEvt:softwareAgent>
                  <stEvt:changed>/</stEvt:changed>
               </rdf:li>
            </rdf:Seq>
         </xmpMM:History>
      </rdf:Description>
      <rdf:Description rdf:about=""
            xmlns:pdf="http://ns.adobe.com/pdf/1.3/">
         <pdf:Producer>Adobe PDF library 10.01</pdf:Producer>
      </rdf:Description>
   </rdf:RDF>
</x:xmpmeta>
                                                                                                    
                                                                                                    
                                                                                                    
                                                                                                    
                                                                                                    
                                                                                                    
                                                                                                    
                                                                                                    
                                                                                                    
                                                                                                    
                                                                                                    
                                                                                                    
                                                                                                    
                                                                                                    
                                                                                                    
                                                                                                    
                                                                                                    
                                                                                                    
                                                                                                    
                                                                                                    
                           
<?xpacket end="w"?>
	</metadata>
<rect x="17.833" y="15" fill="#347685" width="11.083" height="8.75"/>
<rect x="17.833" y="23.375" fill="#347685" width="11.083" height="8.75"/>
<g>
	<path fill="#333333" d="M34.211,16.261v15c0,0.492-0.174,0.912-0.52,1.26c-0.348,0.346-0.768,0.52-1.26,0.52H14.57
		c-0.48,0-0.9-0.174-1.26-0.52c-0.36-0.348-0.534-0.768-0.52-1.26v-15c0-0.494,0.173-0.914,0.52-1.261s0.767-0.526,1.26-0.54h17.861
		c0.492,0,0.912,0.18,1.26,0.54C34.037,15.36,34.211,15.78,34.211,16.261z M17.07,18.04v-1.42c0-0.2-0.067-0.373-0.2-0.52
		c-0.133-0.146-0.3-0.214-0.5-0.201h-1.44c-0.187,0-0.354,0.067-0.5,0.201c-0.147,0.133-0.22,0.307-0.22,0.52v1.42
		c0,0.2,0.073,0.367,0.22,0.5c0.146,0.133,0.313,0.207,0.5,0.221h1.44c0.187,0,0.353-0.074,0.5-0.221
		C17.017,18.394,17.083,18.228,17.07,18.04z M17.07,22.319v-1.42c0-0.199-0.067-0.365-0.2-0.5c-0.133-0.133-0.3-0.206-0.5-0.219
		h-1.44c-0.187,0-0.354,0.072-0.5,0.219c-0.147,0.147-0.22,0.314-0.22,0.5v1.42c0,0.201,0.073,0.367,0.22,0.5
		c0.146,0.135,0.313,0.207,0.5,0.221h1.44c0.187,0,0.353-0.073,0.5-0.221C17.017,22.673,17.083,22.507,17.07,22.319z M17.07,26.62
		v-1.439c0-0.188-0.067-0.354-0.2-0.5c-0.133-0.146-0.3-0.221-0.5-0.221h-1.44c-0.187,0-0.354,0.074-0.5,0.221
		c-0.147,0.146-0.22,0.312-0.22,0.5v1.439c0,0.188,0.073,0.354,0.22,0.5c0.146,0.146,0.313,0.213,0.5,0.199h1.44
		c0.187,0,0.353-0.066,0.5-0.199C17.017,26.987,17.083,26.819,17.07,26.62z M17.07,30.899V29.46c0-0.187-0.067-0.354-0.2-0.5
		c-0.133-0.146-0.3-0.213-0.5-0.199h-1.44c-0.187,0-0.354,0.066-0.5,0.199c-0.147,0.133-0.22,0.301-0.22,0.5v1.439
		c0,0.188,0.073,0.354,0.22,0.5c0.146,0.146,0.313,0.221,0.5,0.221h1.44c0.187,0,0.353-0.074,0.5-0.221
		C17.017,31.253,17.083,31.087,17.07,30.899z M28.512,22.319V16.62c0-0.2-0.074-0.373-0.221-0.52s-0.312-0.214-0.5-0.201H19.21
		c-0.187,0-0.354,0.067-0.5,0.201c-0.147,0.133-0.213,0.307-0.2,0.52v5.699c0,0.201,0.066,0.367,0.2,0.5
		c0.133,0.135,0.3,0.207,0.5,0.221h8.581c0.201,0,0.367-0.073,0.5-0.221C28.424,22.673,28.498,22.507,28.512,22.319z M28.512,30.899
		v-5.719c0-0.188-0.074-0.354-0.221-0.5s-0.312-0.221-0.5-0.221H19.21c-0.187,0-0.354,0.074-0.5,0.221
		c-0.147,0.146-0.213,0.312-0.2,0.5v5.719c0,0.188,0.066,0.354,0.2,0.5s0.3,0.221,0.5,0.221h8.581c0.201,0,0.367-0.074,0.5-0.221
		S28.498,31.087,28.512,30.899z M32.791,18.04v-1.42c0-0.2-0.072-0.373-0.221-0.52c-0.146-0.146-0.312-0.214-0.5-0.201h-1.42
		c-0.199,0-0.365,0.067-0.5,0.201c-0.133,0.133-0.205,0.307-0.219,0.52v1.42c0,0.2,0.072,0.367,0.219,0.5s0.314,0.207,0.5,0.221
		h1.42c0.201,0,0.367-0.074,0.5-0.221C32.705,18.394,32.777,18.228,32.791,18.04z M32.791,22.319v-1.42
		c0-0.199-0.072-0.365-0.221-0.5c-0.146-0.133-0.312-0.206-0.5-0.219h-1.42c-0.199,0-0.365,0.072-0.5,0.219
		c-0.133,0.147-0.205,0.314-0.219,0.5v1.42c0,0.201,0.072,0.367,0.219,0.5c0.146,0.135,0.314,0.207,0.5,0.221h1.42
		c0.201,0,0.367-0.073,0.5-0.221C32.705,22.673,32.777,22.507,32.791,22.319z M32.791,26.62v-1.439c0-0.188-0.072-0.354-0.221-0.5
		c-0.146-0.146-0.312-0.221-0.5-0.221h-1.42c-0.199,0-0.365,0.074-0.5,0.221c-0.133,0.146-0.205,0.312-0.219,0.5v1.439
		c0,0.188,0.072,0.354,0.219,0.5s0.314,0.213,0.5,0.199h1.42c0.201,0,0.367-0.066,0.5-0.199
		C32.705,26.987,32.777,26.819,32.791,26.62z M32.791,30.899V29.46c0-0.187-0.072-0.354-0.221-0.5
		c-0.146-0.146-0.312-0.213-0.5-0.199h-1.42c-0.199,0-0.365,0.066-0.5,0.199c-0.133,0.133-0.205,0.301-0.219,0.5v1.439
		c0,0.188,0.072,0.354,0.219,0.5s0.314,0.221,0.5,0.221h1.42c0.201,0,0.367-0.074,0.5-0.221
		C32.705,31.253,32.777,31.087,32.791,30.899z"/>
</g>
</svg>
